<?xml version="1.0" encoding="UTF-8" standalone="no"?>
<!-- Created with Inkscape (http://www.inkscape.org/) -->

<svg
   xmlns:dc="http://purl.org/dc/elements/1.1/"
   xmlns:cc="http://creativecommons.org/ns#"
   xmlns:rdf="http://www.w3.org/1999/02/22-rdf-syntax-ns#"
   xmlns:svg="http://www.w3.org/2000/svg"
   xmlns="http://www.w3.org/2000/svg"
   xmlns:sodipodi="http://sodipodi.sourceforge.net/DTD/sodipodi-0.dtd"
   xmlns:inkscape="http://www.inkscape.org/namespaces/inkscape"
   width="840"
   height="160"
   viewBox="0 0 222.25 42.333331"
   version="1.1"
   id="svg8"
   inkscape:version="0.92.3 (2405546, 2018-03-11)"
   sodipodi:docname="f1_dentes_superiores_vestibular.min.svg"
   inkscape:export-filename="C:\Dev\Periochart\proto\img\versao_final\dentes_superiores_face_vestibular.png"
   inkscape:export-xdpi="96"
   inkscape:export-ydpi="96">
  <defs
     id="defs2">
    <filter
       style="color-interpolation-filters:sRGB"
       inkscape:label="Drop Shadow"
       id="filter2473">
      <feFlood
         flood-opacity="1"
         flood-color="rgb(0,0,0)"
         result="flood"
         id="feFlood2460" />
      <feComposite
         in="flood"
         in2="SourceGraphic"
         operator="out"
         result="composite1"
         id="feComposite2462" />
      <feGaussianBlur
         in="composite1"
         stdDeviation="3"
         result="blur"
         id="feGaussianBlur2464" />
      <feOffset
         dx="0"
         dy="0"
         result="offset"
         id="feOffset2466" />
      <feComposite
         in="offset"
         in2="SourceGraphic"
         operator="atop"
         result="composite2"
         id="feComposite2468" />
    </filter>
  </defs>
  <sodipodi:namedview
     id="base"
     pagecolor="#ffffff"
     bordercolor="#666666"
     borderopacity="1.0"
     inkscape:pageopacity="0.0"
     inkscape:pageshadow="2"
     inkscape:zoom="1.4"
     inkscape:cx="380.25743"
     inkscape:cy="24.243047"
     inkscape:document-units="mm"
     inkscape:current-layer="vestibular_28"
     showgrid="false"
     units="px"
     showguides="true"
     inkscape:guide-bbox="true"
     inkscape:window-width="1920"
     inkscape:window-height="1017"
     inkscape:window-x="-8"
     inkscape:window-y="-8"
     inkscape:window-maximized="1"
     guidetolerance="1"
     gridtolerance="1"
     objecttolerance="1">
    <sodipodi:guide
       position="134.43657,0.93544332"
       orientation="0,1"
       id="guide2131"
       inkscape:locked="false" />
    <sodipodi:guide
       position="102.09696,41.159506"
       orientation="0,1"
       id="guide2133"
       inkscape:locked="false" />
    <sodipodi:guide
       position="68.413691,47.306702"
       orientation="1,0"
       id="guide3493"
       inkscape:locked="false" />
    <sodipodi:guide
       position="75.904544,50.480531"
       orientation="1,0"
       id="guide3495"
       inkscape:locked="false" />
    <sodipodi:guide
       position="145.66257,61.657365"
       orientation="0.9999699,0.0077590668"
       id="guide3497"
       inkscape:locked="false" />
    <sodipodi:guide
       position="152.47726,50.781209"
       orientation="1,0"
       id="guide3499"
       inkscape:locked="false" />
    <sodipodi:guide
       position="2.6930803,14.693824"
       orientation="1,0"
       id="guide3501"
       inkscape:locked="false" />
    <sodipodi:guide
       position="218.75372,47.306704"
       orientation="1,0"
       id="guide3503"
       inkscape:locked="false" />
    <sodipodi:guide
       position="16.158482,18.190103"
       orientation="1,0"
       id="guide3505"
       inkscape:locked="false" />
    <sodipodi:guide
       position="56.86159,14.766641"
       orientation="0,1"
       id="guide180"
       inkscape:locked="false" />
  </sodipodi:namedview>
  <metadata
     id="metadata5">
    <rdf:RDF>
      <cc:Work
         rdf:about="">
        <dc:format>image/svg+xml</dc:format>
        <dc:type
           rdf:resource="http://purl.org/dc/dcmitype/StillImage" />
        <dc:title />
      </cc:Work>
    </rdf:RDF>
  </metadata>
  <g
     inkscape:label="camada_1"
     inkscape:groupmode="layer"
     id="camada_1"
     transform="translate(0,-254.66669)">
    <g
       transform="matrix(0.26458333,0,0,0.26458333,0.55250032,250.71602)"
       id="vestibular_18"
       style="fill:#ffffff;stroke:#4d4d4d;stroke-width:1px;stroke-miterlimit:4;stroke-dasharray:none;filter:url(#filter2473)">
      <g
         id="vestibular_18_dente"
         style="stroke-width:1px;stroke-miterlimit:4;stroke-dasharray:none">
        <path
           inkscape:connector-curvature="0"
           d="m 24.472656,48.494141 c -0.111012,-0.01025 -0.21535,-0.0097 -0.314453,0.002 -1.58564,0.186546 -3.357422,2.424692 -3.357422,3.357422 0,0.649193 0.223846,3.423287 0.388672,5.40625 1.496193,-1.308027 3.74281,-2.592452 5.126953,-0.191407 0.887404,1.539361 2.778308,7.740815 3.164063,12.267579 0.285102,3.345611 0.62713,7.385366 0.59375,12.003906 -0.03574,4.944299 1.849068,17.935396 3.958984,18.136718 3.742955,0.357144 2.443764,-23.284613 2.306641,-25.787109 -0.263816,-4.814638 -3.495662,-11.147759 -4.28711,-14.181641 -0.432401,-1.657539 0.25796,-2.634405 1.195313,-3.21289 l -4.240235,-5.1875 c 0,0 -2.869973,-2.459572 -4.535156,-2.613281 z m 11.142279,7.063037 c -1.415784,0.117982 -4.353947,0.923148 -3.5625,3.957031 0.791448,3.033882 4.023293,9.36505 4.287109,14.179688 0.137123,2.502496 1.434362,26.146205 -2.308593,25.789062 -2.109916,-0.201323 -3.992771,-13.192419 -3.957032,-18.136718 0.03338,-4.61854 -0.308648,-8.658295 -0.59375,-12.003907 -0.385755,-4.526763 -2.278611,-10.728217 -3.166015,-12.267578 -2.220668,-3.852147 -6.622899,0.837453 -6.726563,3.296875 -0.219087,5.197823 -0.293382,11.780103 -1.517578,20.117188 -0.482525,3.286119 -1.055161,35.877941 -1.978515,39.439461 -0.05822,0.22457 -0.404955,1.2208 -0.50586,1.54686 0.08531,-0.0476 0.909879,-0.51004 2.03125,-1.04296 1.177571,-0.55964 2.576797,-1.1411 3.462891,-1.23438 1.772186,-0.18653 27.236193,-0.1875 28.355469,-0.1875 0.559637,0 1.608166,0.37301 2.517578,0.74609 0.909411,0.37309 1.679687,0.74611 1.679687,0.74611 h 0.0918 c 0.03434,0.002 0.113946,0.0732 0.150391,0.0781 C 53.150358,116.21546 52.332763,91.421608 51.575872,85.631397 50.256794,75.540443 44.157483,63.337019 41.153998,59.647022 38.84561,56.811002 37.19783,55.425271 35.614935,55.557178 Z"
           style="fill:#ffffff;stroke:#4d4d4d;stroke-width:1px;stroke-linecap:butt;stroke-linejoin:miter;stroke-miterlimit:4;stroke-dasharray:none;stroke-opacity:1"
           id="vestibular_18_raiz" />
        <path
           inkscape:connector-curvature="0"
           d="m 31.130263,154.08651 0.06595,-7.78256 m 22.678488,-25.72334 c -0.03645,-0.005 -0.116055,-0.0763 -0.150391,-0.0781 h -0.0918 c 0,0 -0.770276,-0.37302 -1.679687,-0.74611 -0.909412,-0.37308 -1.957941,-0.74609 -2.517578,-0.74609 -1.119276,0 -26.583283,9.7e-4 -28.355469,0.1875 -0.886094,0.0933 -2.28532,0.67474 -3.462891,1.23438 -1.121371,0.53292 -1.945943,0.99534 -2.03125,1.04296 -1.49933,4.84503 -7.0601212,19.45364 -5.8242192,23.7793 1.3190792,4.61678 8.0450062,12.53125 11.4746102,12.53125 3.429605,0 8.970272,-3.16573 9.761719,-3.69335 0.791447,-0.52764 9.23384,5.40834 12.003906,5.14452 2.770066,-0.26381 15.498068,-9.03494 16.355468,-12.99219 0.98931,-6.33158 -4.221032,-19.72096 -5.408203,-24.60156 -0.02329,-0.0957 -0.05072,-0.92087 -0.07422,-1.0625 z"
           style="fill:#ffffff;stroke:#4d4d4d;stroke-width:1px;stroke-linecap:butt;stroke-linejoin:miter;stroke-miterlimit:4;stroke-dasharray:none;stroke-opacity:1"
           id="vestibular_18_face" />
      </g>
    </g>
    <g
       transform="matrix(0.26458333,0,0,0.26458333,0.55250032,250.81562)"
       id="vestibular_17"
       style="fill:#ffffff;stroke:#4d4d4d;stroke-width:1px;stroke-miterlimit:4;stroke-dasharray:none;filter:url(#filter2473)">
      <g
         id="vestibular_17_dente"
         style="stroke-width:1px;stroke-miterlimit:4;stroke-dasharray:none">
        <path
           inkscape:connector-curvature="0"
           d="m 79.498047,47.070312 c -0.111012,-0.01025 -0.21535,-0.0097 -0.314453,0.002 -1.58564,0.186546 -3.357422,2.424692 -3.357422,3.357422 -0.0104,0.456404 -0.01212,0.895593 -0.01953,1.345703 0.873023,-0.05449 1.710693,0.326196 2.345703,1.427734 0.887404,1.539361 2.78026,7.740815 3.166015,12.267578 0.285102,3.345612 0.957208,7.385366 0.923829,12.003906 -0.03574,4.944299 2.505318,20.640474 4.615234,20.841797 3.742955,0.357143 1.984779,-24.274848 1.847656,-26.777344 -0.263816,-4.814638 -4.023005,-12.860649 -4.814453,-15.894531 -0.439385,-1.684311 0.27954,-2.665924 1.240234,-3.240234 -0.355413,-0.896788 -0.717559,-1.801319 -1.097656,-2.720703 0,0 -2.869973,-2.459573 -4.535156,-2.613282 z m 7.968451,4.621632 c -1.415784,0.117982 -4.353947,0.923148 -3.5625,3.957031 0.791447,3.033882 4.550637,11.079893 4.814453,15.894531 0.137123,2.502496 1.897251,27.134487 -1.845703,26.777344 C 84.762832,98.119527 82.219821,82.423352 82.25556,77.479053 82.28894,72.860513 81.616834,68.820759 81.331732,65.475147 80.945977,60.948384 79.05312,54.74693 78.165716,53.207569 c -2.220668,-3.852147 -6.902195,0.933156 -7.005859,3.392578 -0.219087,5.197823 -0.01408,11.684399 -1.238281,20.021484 -0.482525,3.286119 -1.055161,35.879889 -1.978516,39.441409 -0.152866,0.58963 -0.904642,3.33641 -1.300781,4.73827 0.01449,-0.0182 0.294922,-0.42577 0.294922,-0.42577 0,0 0.955241,-0.53803 2.132812,-1.09766 1.177571,-0.55964 2.576797,-1.14109 3.462891,-1.23437 1.772186,-0.18654 29.474466,0 30.593746,0 0.55964,0 1.60817,0.373 2.51758,0.74609 0.90941,0.3731 1.67969,0.7461 1.67969,0.7461 h 0.0937 c 0,0 0.33536,0.39222 0.35547,0.4121 -0.0807,-0.2877 -0.32814,-0.99743 -0.38672,-1.23827 -0.74106,-3.04658 -2.15215,-31.338345 -2.93359,-37.316414 C 103.1337,71.302162 97.034387,59.096784 94.030901,55.406787 91.722513,52.570768 89.049342,51.560037 87.466448,51.691944 Z"
           style="fill:#ffffff;stroke:#4d4d4d;stroke-width:1px;stroke-linecap:butt;stroke-linejoin:miter;stroke-miterlimit:4;stroke-dasharray:none;stroke-opacity:1"
           id="vestibular_17_raiz" />
        <path
           inkscape:connector-curvature="0"
           d="m 84.023912,154.0518 0.06595,-7.78256 M 107.77314,119.9478 c -0.0201,-0.0199 -0.35547,-0.4121 -0.35547,-0.4121 h -0.0937 c 0,0 -0.77028,-0.373 -1.67969,-0.7461 -0.90941,-0.37309 -1.95794,-0.74609 -2.51758,-0.74609 -1.11928,0 -28.82156,-0.18654 -30.593746,0 -0.886094,0.0933 -2.28532,0.67473 -3.462891,1.23437 -1.177571,0.55963 -2.132812,1.09766 -2.132812,1.09766 0,0 -0.280428,0.40762 -0.294922,0.42577 -1.996661,7.0659 -5.9157,20.81133 -5.404297,24.78516 0.666168,5.17643 8.140709,12.06445 11.570312,12.06445 3.429605,0 10.18121,-2.88643 10.972657,-3.41406 0.791448,-0.52763 10.937954,6.06336 13.683593,5.61133 5.568246,-0.91673 15.279316,-11.00565 16.136716,-14.96288 0.94049,-6.01915 -4.27388,-19.39511 -5.82812,-24.93751 z"
           style="fill:#ffffff;stroke:#4d4d4d;stroke-width:1px;stroke-linecap:butt;stroke-linejoin:miter;stroke-miterlimit:4;stroke-dasharray:none;stroke-opacity:1"
           id="vestibular_17_face" />
      </g>
    </g>
    <g
       transform="matrix(0.26458333,0,0,0.26458333,0.55250032,250.71517)"
       id="vestibular_16"
       style="fill:#ffffff;stroke:#4d4d4d;stroke-width:1px;stroke-miterlimit:4;stroke-dasharray:none;filter:url(#filter2473)">
      <g
         id="vestibular_16_dente"
         style="stroke-width:1px;stroke-miterlimit:4;stroke-dasharray:none">
        <path
           inkscape:connector-curvature="0"
           d="m 144.79883,40.746094 c -0.5176,0.0123 -1.12046,0.236313 -1.95117,0.615234 -1.32914,0.606274 -4.89699,3.474072 -5.75977,4.896484 -0.86277,1.422413 -2.47266,11.65892 -2.47266,11.798829 l -0.0547,0.04883 c 0.42314,1.328934 0.73282,2.611576 0.82617,3.707031 0.2851,3.34562 1.28535,10.090444 1.25195,14.708984 -0.0357,4.9443 6.927,21.760522 7.58594,22.09375 3.35531,1.696814 6.66643,-26.517041 6.5293,-29.019531 -0.26381,-4.81464 -0.19879,-15.235645 -0.99024,-18.269531 -0.53353,-2.045222 0.62993,-3.064769 1.87695,-3.556641 -0.47933,-1.25167 -1.27198,-2.911157 -1.40039,-3.167969 -0.18654,-0.373091 -3.82413,-3.21699 -4.57031,-3.636718 -0.27982,-0.157399 -0.56053,-0.226128 -0.87109,-0.21875 z m 8.52704,6.623584 c -1.41579,0.117982 -4.35198,0.923148 -3.56054,3.957031 0.79145,3.033886 0.72447,13.454892 0.98828,18.269532 0.13713,2.50249 -3.17399,30.716349 -6.5293,29.019531 -0.65894,-0.333228 -7.61972,-17.14945 -7.58398,-22.09375 0.0334,-4.61854 -0.96881,-11.363365 -1.25391,-14.708985 -0.38576,-4.526759 -4.33405,-12.219341 -5.67188,-13.388671 -3.80356,-3.324515 -5.82085,2.007817 -6.15039,4.447265 -0.74672,5.52759 -2.45215,9.639802 -3.47851,19.164063 -0.35586,3.302239 0.32961,36.934576 -0.59375,40.496096 -0.23183,0.89418 -0.82837,5.28725 -1.29688,8.27539 0.29523,-0.16198 0.75223,-0.42149 1.67774,-0.86134 1.17757,-0.55963 2.5768,-1.14304 3.46289,-1.23631 1.77219,-0.18654 42.99791,-0.0937 44.11719,-0.0937 0.55963,0 1.61012,0.373 2.51953,0.74608 0.90941,0.3731 1.67773,0.7461 1.67773,0.7461 h 0.0937 c 0,0 0.26041,0.38197 0.30664,0.44532 -0.0526,-0.22242 -0.14201,-0.76004 -0.18945,-0.95508 -0.74106,-3.04659 -2.39434,-38.928196 -3.17578,-44.906256 -1.31908,-10.09096 -5.78948,-19.915469 -8.79297,-23.605469 -2.30839,-2.83602 -4.98352,-3.848704 -6.56641,-3.716797 z"
           style="fill:#ffffff;stroke:#4d4d4d;stroke-width:1px;stroke-linecap:butt;stroke-linejoin:miter;stroke-miterlimit:4;stroke-dasharray:none;stroke-opacity:1"
           id="vestibular_16_raiz" />
        <path
           inkscape:connector-curvature="0"
           d="m 141.54158,158.44947 0.15917,-11.97984 m 30.34973,-25.91635 c -0.0462,-0.0633 -0.30664,-0.44532 -0.30664,-0.44532 h -0.0937 c 0,0 -0.76832,-0.373 -1.67773,-0.7461 -0.90941,-0.37308 -1.9599,-0.74608 -2.51953,-0.74608 -1.11928,0 -42.345,-0.0928 -44.11719,0.0937 -0.88609,0.0933 -2.28532,0.67668 -3.46289,1.23631 -0.92551,0.43985 -1.38251,0.69936 -1.67774,0.86134 -1.39755,8.91358 -3.17403,22.02147 -2.83593,25.60156 1.06189,11.2442 11.10811,16.61644 15.19726,17.07812 3.40795,0.38477 9.85113,-4.2712 10.64258,-4.79882 0.79145,-0.52764 17.46725,6.45788 20.21289,6.00585 5.56825,-0.91673 13.49264,-15.02895 13.55859,-20.10742 0.94978,-6.07855 -1.65651,-18.69016 -2.91992,-24.03319 z"
           style="fill:#ffffff;stroke:#4d4d4d;stroke-width:1px;stroke-linecap:butt;stroke-linejoin:miter;stroke-miterlimit:4;stroke-dasharray:none;stroke-opacity:1"
           id="vestibular_16_face" />
      </g>
    </g>
    <g
       transform="matrix(0.26458333,0,0,0.26458333,0.55250032,250.81562)"
       id="vestibular_15"
       style="fill:#ffffff;stroke:#4d4d4d;stroke-width:1px;stroke-miterlimit:4;stroke-dasharray:none;filter:url(#filter2473)">
      <g
         id="vestibular_15_dente"
         style="stroke-width:1px;stroke-miterlimit:4;stroke-dasharray:none">
        <path
           inkscape:connector-curvature="0"
           transform="translate(-2.0881902,14.555225)"
           id="vestibular_15_raiz"
           d="m 196.34375,26.578125 c -0.34214,0.09361 -0.6924,0.357347 -1.04883,0.8125 -2.92681,3.737498 -1.71955,40.002727 -9.73437,77.976565 0.48869,-0.087 3.11314,-0.81748 7.75586,-1.33985 2.43651,-0.27414 5.33829,-0.4746 8.59179,-0.46289 3.19771,0.0115 6.75022,0.24368 10.52149,0.79883 -1.65043,-11.048276 -2.92624,-23.893153 -5.88672,-35.912108 -1.55401,-6.308964 -5.06712,-43.277141 -10.19922,-41.873047 z"
           style="fill:#ffffff;stroke:#4d4d4d;stroke-width:1px;stroke-linecap:butt;stroke-linejoin:miter;stroke-miterlimit:4;stroke-dasharray:none;stroke-opacity:1" />
        <path
           inkscape:connector-curvature="0"
           transform="translate(-2.0881902,14.555225)"
           id="vestibular_15_face"
           d="m 212.42969,104.36328 c -3.77127,-0.55515 -7.32378,-0.78731 -10.52149,-0.79883 -3.2535,-0.0117 -6.15528,0.18875 -8.59179,0.46289 -4.64272,0.52237 -7.26717,1.2528 -7.75586,1.33985 -0.002,0.007 -0.002,0.0143 -0.004,0.0215 -2.15443,10.20326 -9.34235,31.67652 -5.58984,36.32422 3.27471,4.05591 15.05492,8.41364 19.32226,8.54297 4.88436,0.14803 11.9371,-6.14303 15.29492,-10.43359 3.35783,-4.29055 5.94977,-6.6382 1.47266,-18.76368 -1.63463,-4.42711 -2.67784,-10.34177 -3.62695,-16.69531 z"
           style="fill:#ffffff;stroke:#4d4d4d;stroke-width:1px;stroke-linecap:butt;stroke-linejoin:miter;stroke-miterlimit:4;stroke-dasharray:none;stroke-opacity:1" />
      </g>
    </g>
    <g
       transform="matrix(0.26458333,0,0,0.26458333,0.55250032,250.81562)"
       id="vestibular_14"
       style="fill:#ffffff;stroke:#4d4d4d;stroke-width:1px;stroke-miterlimit:4;stroke-dasharray:none;filter:url(#filter2473)">
      <g
         id="vestibular_14_dente"
         style="stroke-width:1px;stroke-miterlimit:4;stroke-dasharray:none">
        <path
           inkscape:connector-curvature="0"
           d="m 241.78711,23.779297 c -7.22973,0.07443 -8.57819,40.674209 -14.0918,77.468753 -0.21247,1.41788 -0.8072,2.97376 -1.25976,4.47656 0.003,-0.002 0.15625,-0.14063 0.15625,-0.14063 0.23938,-0.016 3.07863,-0.85971 7.66992,-1.41015 2.29564,-0.27522 5.03031,-0.47661 8.0957,-0.46485 3.06539,0.0118 6.46295,0.23726 10.08594,0.81641 0,0 0.33453,0.29831 0.34766,0.30859 -6.63987,-18.560673 -4.62278,-34.82743 -5.95704,-45.138668 -1.18633,-9.168084 3.47945,-36.003789 -5.04687,-35.916015 z m -3.60908,1.319775 c -0.51397,0.04573 -1.11266,0.339844 -2.01953,1.123047 -1.45099,1.253125 -4.15474,8.047101 -4.2207,11.21289 -0.0595,2.857205 0.85571,9.609313 1.68945,15.076172 1.58571,-12.89222 3.24821,-22.957197 5.71485,-26.904297 -0.11293,-0.201257 -0.21243,-0.350106 -0.28125,-0.373047 -0.29679,-0.09893 -0.57443,-0.162203 -0.88282,-0.134765 z"
           style="fill:#ffffff;stroke:#4d4d4d;stroke-width:1px;stroke-linecap:butt;stroke-linejoin:miter;stroke-miterlimit:4;stroke-dasharray:none;stroke-opacity:1"
           transform="translate(-2.0881902,14.555225)"
           id="vestibular_14_raiz" />
        <path
           inkscape:connector-curvature="0"
           transform="translate(-2.0881902,14.555225)"
           id="vestibular_14_face"
           d="m 252.79102,104.83398 c -0.0131,-0.0103 -0.34766,-0.30859 -0.34766,-0.30859 -3.62299,-0.57915 -7.02055,-0.80464 -10.08594,-0.81641 -3.06539,-0.0118 -5.80006,0.18963 -8.0957,0.46485 -4.59129,0.55044 -7.43054,1.3942 -7.66992,1.41015 0,0 -0.15363,0.13852 -0.15625,0.14063 -2.83922,9.42794 -9.03295,20.13265 -4.79102,28.41992 3.13572,6.12612 15.12133,13.09723 19.38867,13.22656 4.88436,0.14803 11.07968,-6.80514 14.4375,-11.0957 3.35783,-4.29055 8.25485,-9.55495 2.72461,-19.35742 -2.32653,-4.12383 -3.99223,-8.13679 -5.40429,-12.08399 z"
           style="fill:#ffffff;stroke:#4d4d4d;stroke-width:1px;stroke-linecap:butt;stroke-linejoin:miter;stroke-miterlimit:4;stroke-dasharray:none;stroke-opacity:1" />
      </g>
    </g>
    <g
       transform="matrix(0.26458333,0,0,0.26458333,7.5605311,250.84439)"
       id="vestibular_13"
       style="fill:#ffffff;stroke:#4d4d4d;stroke-width:1px;stroke-miterlimit:4;stroke-dasharray:none;filter:url(#filter2473)">
      <g
         id="vestibular_13_dente"
         style="stroke-width:1px;stroke-miterlimit:4;stroke-dasharray:none">
        <path
           transform="translate(-28.575236,14.446488)"
           id="vestibular_13_raiz"
           d="m 305.8457,5.2265625 c -8.04639,8.7059205 -11.34331,52.1024875 -12.13476,59.3574215 -0.59454,5.449901 -0.67082,26.738284 -1.17383,40.636716 0.26793,-0.0206 3.24254,-0.85557 8.07812,-1.40234 2.42481,-0.27418 5.31293,-0.47461 8.55079,-0.46289 3.23785,0.0117 6.82552,0.23554 10.65234,0.8125 l 0.4668,0.64062 c -0.16034,-0.4344 -0.62033,-1.5387 -0.72071,-1.83984 C 318.24537,99.01151 313.233,64.583881 312.17773,54.03125 311.12247,43.478618 311.51743,25.670723 311.78125,15.25 312.04507,4.8292761 305.8457,5.2265625 305.8457,5.2265625 Z"
           style="fill:#ffffff;stroke:#4d4d4d;stroke-width:1px;stroke-linecap:butt;stroke-linejoin:miter;stroke-miterlimit:4;stroke-dasharray:none;stroke-opacity:1"
           inkscape:connector-curvature="0" />
        <path
           transform="translate(-28.575236,14.446488)"
           id="vestibular_13_face"
           d="m 320.28516,104.80859 -0.4668,-0.64062 c -3.82682,-0.57696 -7.41449,-0.80078 -10.65234,-0.8125 -3.23786,-0.0117 -6.12598,0.18871 -8.55079,0.46289 -4.83558,0.54677 -7.81019,1.38174 -8.07812,1.40234 -0.1666,4.60323 -0.37846,8.4117 -0.67383,10.54492 -0.54755,3.95452 -2.76911,8.30995 -3.56055,14.77344 -0.79145,6.46348 15.16809,18.5978 20.3125,18.33399 5.14441,-0.26382 14.64133,-8.70445 18.73047,-13.45313 2.92324,-3.67604 1.75681,-7.2484 1.3418,-8.80859 -0.79685,-2.99568 -6.45568,-16.52864 -8.40234,-21.80274 z"
           style="fill:#ffffff;stroke:#4d4d4d;stroke-width:1px;stroke-linecap:butt;stroke-linejoin:miter;stroke-miterlimit:4;stroke-dasharray:none;stroke-opacity:1"
           inkscape:connector-curvature="0" />
      </g>
    </g>
    <g
       transform="matrix(0.26458333,0,0,0.26458333,7.5605311,250.84439)"
       id="vestibular_12"
       style="fill:#ffffff;stroke:#4d4d4d;stroke-width:1px;stroke-miterlimit:4;stroke-dasharray:none;filter:url(#filter2473)">
      <g
         id="vestibular_12_dente"
         style="stroke-width:1px;stroke-miterlimit:4;stroke-dasharray:none">
        <path
           transform="translate(-28.575236,14.446488)"
           id="vestibular_12_raiz"
           d="m 346.33789,26.025391 c -1.17611,-0.218609 -3.36234,-0.04331 -2.0332,4.853515 1.77219,6.529108 1.30514,13.616307 1.39843,16.88086 0.0933,3.264554 -5.22213,24.065479 -5.50195,27.703125 -0.27982,3.637645 -2.70651,25.929859 -2.98633,28.634769 -0.007,0.068 -0.14443,0.60587 -0.1582,0.69922 0.35723,-0.0949 0.63026,-0.17844 1.55859,-0.38477 1.3343,-0.29656 3.21506,-0.64241 5.52149,-0.84375 2.30642,-0.20134 5.03862,-0.25813 8.07226,0.0195 1.51683,0.13883 3.10902,0.36087 4.76172,0.69141 1.6357,0.32713 3.33135,0.7645 5.07032,1.32617 -0.007,-0.12486 -0.10489,-0.75929 -0.10743,-0.85547 -0.0933,-3.54437 -1.77388,-28.634956 -1.86718,-35.164062 -0.0933,-6.529108 -0.37201,-12.591717 -0.93164,-21.359376 -0.55964,-8.767658 -4.01168,-15.483807 -4.38477,-16.136718 -0.3731,-0.652911 -4.28913,-6.341365 -7.74023,-5.875 0,0 -0.27984,-0.116584 -0.67188,-0.189453 z"
           style="fill:#ffffff;stroke:#4d4d4d;stroke-width:1px;stroke-linecap:butt;stroke-linejoin:miter;stroke-miterlimit:4;stroke-dasharray:none;stroke-opacity:1"
           inkscape:connector-curvature="0" />
        <path
           transform="translate(-28.575236,14.446488)"
           id="vestibular_12_face"
           d="m 362.04102,105.60547 c -1.73897,-0.56167 -3.43462,-0.99904 -5.07032,-1.32617 -1.6527,-0.33054 -3.24489,-0.55258 -4.76172,-0.69141 -3.03364,-0.27766 -5.76584,-0.22087 -8.07226,-0.0195 -2.30643,0.20134 -4.18719,0.54719 -5.52149,0.84375 -0.92833,0.20633 -1.20136,0.28985 -1.55859,0.38477 -0.53351,3.61746 -5.86003,25.27717 -6.13281,27.0957 -0.27982,1.86546 -1.35714,4.66352 0.22851,9.14062 1.58564,4.4771 19.68111,9.04879 24.15821,9.42188 4.47711,0.37309 6.80859,-1.21289 6.80859,-1.21289 0,0 5.3175,-2.89268 4.38477,-10.16797 -0.90742,-7.07788 -4.19425,-28.99257 -4.46289,-33.46875 z"
           style="fill:#ffffff;stroke:#4d4d4d;stroke-width:1px;stroke-linecap:butt;stroke-linejoin:miter;stroke-miterlimit:4;stroke-dasharray:none;stroke-opacity:1"
           inkscape:connector-curvature="0" />
      </g>
    </g>
    <g
       transform="matrix(0.26458333,0,0,0.26458333,7.5605311,250.84439)"
       id="vestibular_11"
       style="fill:#ffffff;stroke:#4d4d4d;stroke-width:1px;stroke-miterlimit:4;stroke-dasharray:none;filter:url(#filter2473)">
      <g
         id="vestibular_11_dente"
         style="stroke-width:1px;stroke-miterlimit:4;stroke-dasharray:none">
        <path
           transform="translate(-28.575236,14.446488)"
           id="vestibular_11_raiz"
           d="m 390.90039,26.794922 c -1.20969,0.374213 -2.3622,1.819184 -2.97656,5.759766 -0.40429,7.782232 -0.24369,14.278415 -0.15039,17.542968 0.0933,3.264554 -0.0625,13.906416 -4.25977,24.632813 -1.32947,3.397533 -3.95313,26.043331 -4.38281,28.728511 -0.0315,0.19659 -0.28128,0.67724 -0.34375,0.91211 0.30036,-0.0267 4.36895,-0.66091 10.21289,-0.88671 2.94768,-0.1139 6.32535,-0.12215 9.85742,0.10742 3.53207,0.22956 7.21672,0.69785 10.7793,1.53515 0,0 0.36263,0.47194 0.36914,0.48047 -0.0806,-3.8006 0.32105,-20.067201 -0.375,-30.037108 -0.49553,-7.097737 -0.98017,-14.271065 -2.70508,-21.173828 -1.80586,-7.226722 -7.5566,-20.239667 -7.92969,-20.892578 -0.3731,-0.652911 -3.08086,-5.350842 -4.77343,-6.041015 -0.84629,-0.345087 -2.11258,-1.042183 -3.32227,-0.667969 z"
           style="fill:#ffffff;stroke:#4d4d4d;stroke-width:1px;stroke-linecap:butt;stroke-linejoin:miter;stroke-miterlimit:4;stroke-dasharray:none;stroke-opacity:1"
           inkscape:connector-curvature="0" />
        <path
           transform="translate(-28.575236,14.446488)"
           id="vestibular_11_face"
           d="m 410.00586,105.60742 c -0.007,-0.009 -0.36914,-0.48047 -0.36914,-0.48047 -3.56258,-0.8373 -7.24723,-1.30559 -10.7793,-1.53515 -3.53207,-0.22957 -6.90974,-0.22132 -9.85742,-0.10742 -5.84394,0.2258 -9.91253,0.85996 -10.21289,0.88671 -0.75517,2.83919 -3.45287,8.09312 -5.55273,13.42774 -2.42079,6.14991 -4.89458,20.22891 -4.89258,24.97851 0.001,3.60104 0.29001,13.33366 28.90625,13.37696 4.49263,0.007 14.84026,0.0473 18.35156,-1.9375 4.22688,-2.38928 3.20617,-7.11339 2.27344,-14.38868 -0.93273,-7.27529 -7.77584,-30.38335 -7.86914,-33.92773 -0.001,-0.0408 0.003,-0.24866 0.002,-0.29297 z"
           style="fill:#ffffff;stroke:#4d4d4d;stroke-width:1px;stroke-linecap:butt;stroke-linejoin:miter;stroke-miterlimit:4;stroke-dasharray:none;stroke-opacity:1"
           inkscape:connector-curvature="0" />
      </g>
    </g>
    <g
       id="vestibular_21"
       transform="matrix(-0.26458333,0,0,0.26458333,214.4219,250.85214)"
       style="fill:#ffffff;stroke:#4d4d4d;stroke-width:1px;stroke-miterlimit:4;stroke-dasharray:none;filter:url(#filter2473)">
      <g
         id="vestibular_21_dente"
         style="stroke-width:1px;stroke-miterlimit:4;stroke-dasharray:none">
        <path
           transform="matrix(-1,0,0,1,810.41349,14.417197)"
           id="vestibular_21_raiz"
           d="m 448.08984,26.824219 c -1.20969,-0.374214 -2.47793,0.322882 -3.32422,0.667969 -1.69256,0.690172 -4.40033,5.388104 -4.77343,6.041015 -0.37309,0.652911 -6.12383,13.665856 -7.92969,20.892578 -1.72491,6.902763 -2.2076,14.07609 -2.70312,21.173828 -0.70043,10.032666 -0.28763,26.531571 -0.375,30.195311 l 0.36718,-0.63867 c 3.56258,-0.8373 7.24723,-1.30559 10.7793,-1.53516 3.53207,-0.22956 6.9117,-0.22132 9.85937,-0.10742 5.84395,0.22581 9.91253,0.85997 10.21289,0.88672 -0.0625,-0.23487 -0.31229,-0.71552 -0.34374,-0.91211 -0.42968,-2.68518 -3.0553,-25.330981 -4.38477,-28.728514 -4.19728,-10.726397 -4.35304,-21.368259 -4.25977,-24.632813 0.0933,-3.264553 0.2539,-9.760736 -0.15039,-17.542969 -0.61436,-3.940581 -1.76492,-5.385552 -2.97461,-5.759765 z"
           style="fill:#ffffff;stroke:#4d4d4d;stroke-width:1px;stroke-linecap:butt;stroke-linejoin:miter;stroke-miterlimit:4;stroke-dasharray:none;stroke-opacity:1"
           inkscape:connector-curvature="0" />
        <path
           transform="matrix(-1,0,0,1,810.41349,14.417197)"
           id="vestibular_21_face"
           d="m 460.20312,104.40039 c -0.30036,-0.0268 -4.36894,-0.66091 -10.21289,-0.88672 -2.94767,-0.1139 -6.3273,-0.12214 -9.85937,0.10742 -3.53207,0.22957 -7.21672,0.69786 -10.7793,1.53516 l -0.36718,0.63867 c -4.7e-4,0.0195 4.9e-4,0.11598 0,0.13477 -0.0933,3.54438 -6.93446,26.65243 -7.86719,33.92773 -0.93273,7.27529 -1.9554,11.99939 2.27148,14.38867 3.5113,1.98479 13.85893,1.9443 18.35156,1.9375 28.61624,-0.0433 28.9048,-9.77591 28.90625,-13.37695 0.002,-4.7496 -2.46983,-18.82861 -4.89062,-24.97852 -2.09987,-5.33462 -4.79757,-10.58854 -5.55274,-13.42773 z"
           style="fill:#ffffff;stroke:#4d4d4d;stroke-width:1px;stroke-linecap:butt;stroke-linejoin:miter;stroke-miterlimit:4;stroke-dasharray:none;stroke-opacity:1"
           inkscape:connector-curvature="0" />
      </g>
    </g>
    <g
       id="vestibular_22"
       transform="matrix(-0.26458333,0,0,0.26458333,214.4219,250.85214)"
       style="fill:#ffffff;stroke:#4d4d4d;stroke-width:1px;stroke-miterlimit:4;stroke-dasharray:none;filter:url(#filter2473)">
      <g
         id="vestibular_22_dente"
         style="stroke-width:1px;stroke-miterlimit:4;stroke-dasharray:none">
        <path
           transform="matrix(-1,0,0,1,810.41349,14.417197)"
           id="vestibular_22_raiz"
           d="m 492.65234,26.054688 c -0.39203,0.07287 -0.67187,0.189453 -0.67187,0.189453 -3.4511,-0.466365 -7.36909,5.222089 -7.74219,5.875 -0.37309,0.652911 -3.82512,7.369059 -4.38476,16.136718 -0.55963,8.767659 -0.83837,14.830267 -0.93164,21.359375 -0.0933,6.529107 -1.77197,31.619696 -1.86524,35.164066 -0.003,0.0962 -0.0999,0.73061 -0.10742,0.85547 1.73832,-0.56138 3.43519,-0.99916 5.07031,-1.32618 1.65271,-0.33053 3.2449,-0.55257 4.76172,-0.6914 3.03364,-0.27766 5.76389,-0.22087 8.07031,-0.0195 2.30643,0.20134 4.18915,0.54719 5.52344,0.84375 0.928,0.20625 1.19932,0.28982 1.55664,0.38476 -0.0138,-0.0934 -0.15116,-0.63117 -0.1582,-0.69922 -0.27982,-2.70491 -2.70456,-24.997118 -2.98438,-28.634762 -0.27982,-3.637646 -5.59717,-24.438572 -5.5039,-27.703126 0.0933,-3.264552 -0.37376,-10.351751 1.39843,-16.880859 1.32914,-4.89683 -0.85513,-5.072124 -2.03125,-4.853515 z"
           style="fill:#ffffff;stroke:#4d4d4d;stroke-width:1px;stroke-linecap:butt;stroke-linejoin:miter;stroke-miterlimit:4;stroke-dasharray:none;stroke-opacity:1"
           inkscape:connector-curvature="0" />
        <path
           transform="matrix(-1,0,0,1,810.41349,14.417197)"
           id="vestibular_22_face"
           d="m 501.93164,104.82617 c -0.35732,-0.0949 -0.62864,-0.17851 -1.55664,-0.38476 -1.33429,-0.29656 -3.21701,-0.64241 -5.52344,-0.84375 -2.30642,-0.20134 -5.03667,-0.25813 -8.07031,0.0195 -1.51682,0.13883 -3.10901,0.36087 -4.76172,0.6914 -1.63512,0.32702 -3.33199,0.7648 -5.07031,1.32618 -0.26864,4.47617 -3.55547,26.39087 -4.46289,33.46875 -0.93273,7.27529 4.38281,10.16796 4.38281,10.16796 0,0 2.33148,1.58598 6.80859,1.2129 4.4771,-0.37309 22.57257,-4.94478 24.15821,-9.42188 1.58565,-4.4771 0.51029,-7.27517 0.23047,-9.14062 -0.27278,-1.81854 -5.60126,-23.47825 -6.13477,-27.09571 z"
           style="fill:#ffffff;stroke:#4d4d4d;stroke-width:1px;stroke-linecap:butt;stroke-linejoin:miter;stroke-miterlimit:4;stroke-dasharray:none;stroke-opacity:1"
           inkscape:connector-curvature="0" />
      </g>
    </g>
    <g
       id="vestibular_23"
       transform="matrix(-0.26458333,0,0,0.26458333,214.4219,250.85214)"
       style="fill:#ffffff;stroke:#4d4d4d;stroke-width:1px;stroke-miterlimit:4;stroke-dasharray:none;filter:url(#filter2473)">
      <g
         id="vestibular_23_dente"
         style="stroke-width:1px;stroke-miterlimit:4;stroke-dasharray:none">
        <path
           transform="matrix(-1,0,0,1,810.41349,14.417197)"
           id="vestibular_23_raiz"
           d="m 533.14258,5.2558594 c 0,0 -6.19937,-0.3972864 -5.93555,10.0234376 0.26382,10.420723 0.65878,28.228618 -0.39648,38.78125 -1.05527,10.552631 -6.06764,44.98026 -7.38672,48.937503 -0.0747,0.22403 -0.42657,1.06975 -0.53516,1.36914 l 0.28125,-0.16992 c 3.82682,-0.57696 7.41449,-0.80078 10.65235,-0.8125 3.23785,-0.0117 6.12598,0.18871 8.55078,0.46289 4.83559,0.54676 7.81019,1.38174 8.07812,1.40234 -0.503,-13.898435 -0.57734,-35.186818 -1.17187,-40.636719 -0.79145,-7.254934 -4.09033,-50.651501 -12.13672,-59.3574216 z"
           style="fill:#ffffff;stroke:#4d4d4d;stroke-width:1px;stroke-linecap:butt;stroke-linejoin:miter;stroke-miterlimit:4;stroke-dasharray:none;stroke-opacity:1"
           inkscape:connector-curvature="0" />
        <path
           transform="matrix(-1,0,0,1,810.41349,14.417197)"
           id="vestibular_23_face"
           d="m 546.45117,105.25 c -0.26793,-0.0206 -3.24253,-0.85558 -8.07812,-1.40234 -2.4248,-0.27418 -5.31293,-0.47461 -8.55078,-0.46289 -3.23786,0.0117 -6.82553,0.23554 -10.65235,0.8125 l -0.28125,0.16992 c -1.80957,4.98902 -7.77228,19.21458 -8.58594,22.27343 -0.41501,1.56019 -1.58339,5.13256 1.33985,8.8086 4.08914,4.74868 13.58606,13.1893 18.73047,13.45312 5.14441,0.26381 21.1059,-11.8705 20.31445,-18.33398 -0.79144,-6.46349 -3.01495,-10.81892 -3.5625,-14.77344 -0.29537,-2.13322 -0.50723,-5.94169 -0.67383,-10.54492 z"
           style="fill:#ffffff;stroke:#4d4d4d;stroke-width:1px;stroke-linecap:butt;stroke-linejoin:miter;stroke-miterlimit:4;stroke-dasharray:none;stroke-opacity:1"
           inkscape:connector-curvature="0" />
      </g>
    </g>
    <g
       id="vestibular_24"
       transform="matrix(-0.26458333,0,0,0.26458333,221.09518,250.88001)"
       style="fill:#ffffff;stroke:#4d4d4d;stroke-width:1px;stroke-miterlimit:4;stroke-dasharray:none;filter:url(#filter2473)">
      <g
         id="vestibular_24_dente"
         style="stroke-width:1px;stroke-miterlimit:4;stroke-dasharray:none">
        <path
           d="m 595.93555,24.023438 c -8.52632,-0.08777 -3.86055,26.74793 -5.04688,35.916015 -1.33174,10.291792 0.67433,26.516326 -5.91992,45.033207 l 0.3125,-0.20313 c 3.62299,-0.57915 7.02055,-0.80464 10.08594,-0.81641 3.06539,-0.0118 5.7981,0.18963 8.09375,0.46485 4.51528,0.54133 7.22311,1.34437 7.54297,1.38672 -0.33583,-1.44839 -0.77873,-3.0053 -0.97461,-4.3125 -5.51361,-36.794543 -6.86402,-77.394323 -14.09375,-77.468752 z m 3.60995,1.318997 c 0.51397,0.04573 1.11266,0.339844 2.01953,1.123047 1.45099,1.253125 4.15474,8.047101 4.2207,11.21289 0.0595,2.857205 -0.85571,9.609313 -1.68945,15.076172 -1.58571,-12.89222 -3.24821,-22.957197 -5.71485,-26.904297 0.11293,-0.201257 0.21243,-0.350106 0.28125,-0.373047 0.29679,-0.09893 0.57443,-0.162203 0.88282,-0.134765 z"
           style="fill:#ffffff;stroke:#4d4d4d;stroke-width:1px;stroke-linecap:butt;stroke-linejoin:miter;stroke-miterlimit:4;stroke-dasharray:none;stroke-opacity:1"
           transform="matrix(-1,0,0,1,835.63534,14.311862)"
           id="vestibular_24_raiz"
           inkscape:connector-curvature="0" />
        <path
           transform="matrix(-1,0,0,1,835.63534,14.311862)"
           id="vestibular_24_face"
           d="m 611.00391,105.80469 c -0.31986,-0.0423 -3.02769,-0.84539 -7.54297,-1.38672 -2.29565,-0.27522 -5.02836,-0.47661 -8.09375,-0.46485 -3.06539,0.0118 -6.46295,0.23726 -10.08594,0.81641 l -0.3125,0.20313 c -1.41747,3.98031 -3.09424,8.02905 -5.44141,12.18945 -5.53024,9.80247 -0.63126,15.06687 2.72657,19.35742 3.35782,4.29056 9.55118,11.24178 14.43554,11.09375 4.26734,-0.12933 17.23601,-6.69053 19.39063,-13.22656 2.0141,-6.10978 -2.7625,-18.6035 -5.07617,-28.58203 z"
           style="fill:#ffffff;stroke:#4d4d4d;stroke-width:1px;stroke-linecap:butt;stroke-linejoin:miter;stroke-miterlimit:4;stroke-dasharray:none;stroke-opacity:1"
           inkscape:connector-curvature="0" />
      </g>
    </g>
    <g
       id="vestibular_25"
       transform="matrix(-0.26458333,0,0,0.26458333,221.09518,250.88001)"
       style="fill:#ffffff;stroke:#4d4d4d;stroke-width:1px;stroke-miterlimit:4;stroke-dasharray:none;filter:url(#filter2473)">
      <g
         id="vestibular_25_dente"
         style="stroke-width:1px;stroke-miterlimit:4;stroke-dasharray:none">
        <path
           transform="matrix(-1,0,0,1,835.63534,14.311862)"
           id="vestibular_25_raiz"
           d="m 641.38086,26.822266 c -5.1321,-1.404095 -8.64521,35.564082 -10.19922,41.873046 -2.96048,12.018955 -4.23824,24.863833 -5.88867,35.912108 3.77126,-0.55514 7.32377,-0.78731 10.52148,-0.79883 3.2535,-0.0117 6.15528,0.18875 8.5918,0.46289 4.64384,0.5225 7.2702,1.25116 7.75781,1.3379 -8.01482,-37.973841 -6.80951,-74.237116 -9.73633,-77.974614 -0.35642,-0.455154 -0.70473,-0.718894 -1.04687,-0.8125 z"
           style="fill:#ffffff;stroke:#4d4d4d;stroke-width:1px;stroke-linecap:butt;stroke-linejoin:miter;stroke-miterlimit:4;stroke-dasharray:none;stroke-opacity:1"
           inkscape:connector-curvature="0" />
        <path
           transform="matrix(-1,0,0,1,835.63534,14.311862)"
           id="vestibular_25_face"
           d="m 652.16406,105.60938 c -0.48761,-0.0867 -3.11397,-0.8154 -7.75781,-1.3379 -2.43652,-0.27414 -5.3383,-0.4746 -8.5918,-0.46289 -3.19771,0.0115 -6.75022,0.24369 -10.52148,0.79883 -0.94911,6.35355 -1.99037,12.26625 -3.625,16.69336 -4.47711,12.12548 -1.88713,14.47312 1.4707,18.76367 3.35782,4.29056 10.41056,10.58358 15.29492,10.43555 4.26734,-0.12933 17.91853,-5.57742 19.32422,-8.54492 3.51948,-7.42983 -3.43541,-26.12096 -5.58984,-36.32422 -0.002,-0.007 -0.002,-0.0143 -0.004,-0.0215 z"
           style="fill:#ffffff;stroke:#4d4d4d;stroke-width:1px;stroke-linecap:butt;stroke-linejoin:miter;stroke-miterlimit:4;stroke-dasharray:none;stroke-opacity:1"
           inkscape:connector-curvature="0" />
      </g>
    </g>
    <g
       id="vestibular_26"
       transform="matrix(-0.26458333,0,0,0.26458333,221.09518,250.68049)"
       style="fill:#ffffff;stroke:#4d4d4d;stroke-width:1px;stroke-miterlimit:4;stroke-dasharray:none;filter:url(#filter2473)">
      <g
         id="vestibular_26_dente"
         style="stroke-width:1px;stroke-miterlimit:4;stroke-dasharray:none">
        <path
           d="m 144.79883,40.746094 c -0.5176,0.0123 -1.12046,0.236313 -1.95117,0.615234 -1.32914,0.606274 -4.89699,3.474072 -5.75977,4.896484 -0.86277,1.422413 -2.47266,11.65892 -2.47266,11.798829 l -0.0547,0.04883 c 0.42314,1.328934 0.73282,2.611576 0.82617,3.707031 0.2851,3.34562 1.28535,10.090444 1.25195,14.708984 -0.0357,4.9443 6.927,21.760522 7.58594,22.09375 3.35531,1.696814 6.66643,-26.517041 6.5293,-29.019531 -0.26381,-4.81464 -0.19879,-15.235645 -0.99024,-18.269531 -0.53353,-2.045222 0.62993,-3.064769 1.87695,-3.556641 -0.47933,-1.25167 -1.27198,-2.911157 -1.40039,-3.167969 -0.18654,-0.373091 -3.82413,-3.21699 -4.57031,-3.636718 -0.27982,-0.157399 -0.56053,-0.226128 -0.87109,-0.21875 z m 8.52792,6.622409 c 1.58289,-0.131907 4.25606,0.880777 6.56445,3.716797 3.00349,3.689999 7.47584,13.514508 8.79492,23.605468 0.78144,5.97806 2.43472,41.861622 3.17578,44.908202 0.0411,0.16911 0.11902,0.63833 0.16406,0.82812 l -0.2832,-0.31835 h -0.0918 c 0,0 -0.77027,-0.37301 -1.67968,-0.7461 -0.90941,-0.37309 -1.95795,-0.74609 -2.51758,-0.74609 -1.11928,0 -42.34695,-0.0928 -44.11914,0.0937 -0.88609,0.0933 -2.28532,0.67473 -3.46289,1.23437 -0.92542,0.43981 -1.38049,0.70127 -1.67578,0.86328 0.4685,-2.98806 1.0631,-7.38122 1.29492,-8.27538 0.92336,-3.56152 0.23789,-37.19386 0.59375,-40.496099 1.02636,-9.524261 2.73375,-13.638425 3.48047,-19.166015 0.32954,-2.439448 2.34683,-7.769828 6.15039,-4.445313 1.33783,1.16933 5.28611,8.861912 5.67187,13.388672 0.2851,3.34562 1.28536,10.088491 1.25196,14.707031 -0.0357,4.9443 6.92699,21.762476 7.58593,22.095704 3.35531,1.69682 6.66643,-26.518995 6.5293,-29.021485 -0.26381,-4.81464 -0.19878,-15.233692 -0.99023,-18.267578 -0.79144,-3.033883 2.14671,-3.841002 3.5625,-3.958984 z"
           style="fill:#ffffff;stroke:#4d4d4d;stroke-width:1px;stroke-linecap:butt;stroke-linejoin:miter;stroke-miterlimit:4;stroke-dasharray:none;stroke-opacity:1"
           id="vestibular_26_raiz"
           inkscape:connector-curvature="0" />
        <path
           d="m 141.54158,158.44947 0.15917,-11.97984 m -23.50486,-25.66168 c 0.29529,-0.16201 0.75036,-0.42347 1.67578,-0.86328 1.17757,-0.55964 2.5768,-1.1411 3.46289,-1.23437 1.77219,-0.18654 42.99986,-0.0937 44.11914,-0.0937 0.55963,0 1.60817,0.373 2.51758,0.74609 0.90941,0.37309 1.67968,0.7461 1.67968,0.7461 h 0.0918 l 0.2832,0.31835 c 1.25487,5.28762 3.90035,18.04797 2.94532,24.16016 -0.066,5.07846 -7.99035,19.19069 -13.5586,20.10742 -2.74564,0.45203 -19.42144,-6.53544 -20.21289,-6.00781 -0.79145,0.52763 -7.23658,5.1836 -10.64453,4.79883 -4.08915,-0.46168 -14.13342,-5.83394 -15.19531,-17.07813 -0.3381,-3.5801 1.43838,-16.68604 2.83594,-25.59961 z"
           style="fill:#ffffff;stroke:#4d4d4d;stroke-width:1px;stroke-linecap:butt;stroke-linejoin:miter;stroke-miterlimit:4;stroke-dasharray:none;stroke-opacity:1"
           id="vestibular_26_face"
           inkscape:connector-curvature="0" />
      </g>
      <g
         transform="matrix(-1,0,0,1,178.02898,-2.5533462)"
         style="fill:#ffffff;stroke:#4d4d4d;stroke-width:1px;stroke-miterlimit:4;stroke-dasharray:none"
         id="vestibular_26_furca" />
    </g>
    <g
       id="vestibular_27"
       transform="matrix(-0.26458333,0,0,0.26458333,221.09518,250.88001)"
       style="fill:#ffffff;stroke:#4d4d4d;stroke-width:1px;stroke-miterlimit:4;stroke-dasharray:none;filter:url(#filter2473)">
      <g
         id="vestibular_27_dente"
         style="stroke-width:1px;stroke-miterlimit:4;stroke-dasharray:none">
        <path
           d="m 79.498047,47.070312 c -0.111012,-0.01025 -0.21535,-0.0097 -0.314453,0.002 -1.58564,0.186546 -3.357422,2.424692 -3.357422,3.357422 -0.0104,0.456404 -0.01212,0.895593 -0.01953,1.345703 0.873023,-0.05449 1.710693,0.326196 2.345703,1.427734 0.887404,1.539361 2.78026,7.740815 3.166015,12.267578 0.285102,3.345612 0.957208,7.385366 0.923829,12.003906 -0.03574,4.944299 2.505318,20.640474 4.615234,20.841797 3.742955,0.357143 1.984779,-24.274848 1.847656,-26.777344 -0.263816,-4.814638 -4.023005,-12.860649 -4.814453,-15.894531 -0.439385,-1.684311 0.27954,-2.665924 1.240234,-3.240234 -0.355413,-0.896788 -0.717559,-1.801319 -1.097656,-2.720703 0,0 -2.869973,-2.459573 -4.535156,-2.613282 z m 7.967373,4.620456 c 1.58289,-0.131907 4.25802,0.880777 6.5664,3.716797 3.00349,3.689997 9.10085,15.895374 10.41993,25.986328 0.78144,5.978069 2.19448,34.269827 2.93554,37.316407 0.0527,0.21657 0.277,0.85864 0.34766,1.11328 l -0.31836,-0.28906 h -0.0937 c 0,0 -0.76832,-0.37301 -1.67773,-0.7461 -0.90942,-0.37309 -1.9599,-0.74609 -2.51954,-0.74609 -1.11928,0 -28.81961,-0.18654 -30.59179,0 -0.8861,0.0933 -2.28532,0.67669 -3.46289,1.23633 -1.17757,0.55964 -2.13477,1.0957 -2.13477,1.0957 0,0 -0.23991,0.24986 -0.24609,0.25586 0.37531,-1.32833 1.10655,-3.99998 1.2539,-4.56836 0.92336,-3.56152 1.49599,-36.153332 1.97852,-39.439451 1.2242,-8.337085 1.01724,-14.825615 1.23633,-20.023438 0.10366,-2.459422 4.78714,-7.242772 7.00781,-3.390625 0.8874,1.539361 2.78026,7.740816 3.16602,12.267578 0.2851,3.345612 0.95525,7.385367 0.92187,12.003907 -0.03574,4.944299 2.50727,20.640474 4.61719,20.841797 3.74295,0.357143 1.98478,-24.274848 1.84765,-26.777344 -0.26381,-4.814638 -4.023,-12.862603 -4.81445,-15.896484 -0.79145,-3.033883 2.14476,-3.83905 3.56055,-3.957032 z"
           style="fill:#ffffff;stroke:#4d4d4d;stroke-width:1px;stroke-linecap:butt;stroke-linejoin:miter;stroke-miterlimit:4;stroke-dasharray:none;stroke-opacity:1"
           id="vestibular_27_raiz"
           inkscape:connector-curvature="0" />
        <path
           d="m 84.023912,154.0518 0.06595,-7.78256 M 66.69003,120.63022 c 0.0062,-0.006 0.24609,-0.25586 0.24609,-0.25586 0,0 0.9572,-0.53606 2.13477,-1.0957 1.17757,-0.55964 2.57679,-1.14306 3.46289,-1.23633 1.77218,-0.18654 29.47251,0 30.59179,0 0.55964,0 1.61012,0.373 2.51954,0.74609 0.90941,0.37309 1.67773,0.7461 1.67773,0.7461 h 0.0937 l 0.31836,0.28906 c 1.52174,5.48389 6.81064,19.01187 5.86523,25.0625 -0.8574,3.95724 -10.56847,14.04616 -16.13672,14.96289 -2.74563,0.45203 -12.89019,-6.13896 -13.68164,-5.61133 -0.79144,0.52763 -7.545,3.41406 -10.9746,3.41406 -3.42961,0 -10.9022,-6.88998 -11.56836,-12.0664 -0.51506,-4.00224 3.47475,-17.95999 5.45117,-24.95508 z"
           style="fill:#ffffff;stroke:#4d4d4d;stroke-width:1px;stroke-linecap:butt;stroke-linejoin:miter;stroke-miterlimit:4;stroke-dasharray:none;stroke-opacity:1"
           id="vestibular_27_face"
           inkscape:connector-curvature="0" />
      </g>
    </g>
    <g
       id="vestibular_28"
       transform="matrix(-0.26458333,0,0,0.26458333,221.09518,250.68024)"
       style="fill:#ffffff;stroke:#4d4d4d;stroke-width:1px;stroke-miterlimit:4;stroke-dasharray:none;filter:url(#filter2473)">
      <g
         id="vestibular_28_dente"
         style="stroke-width:1px;stroke-miterlimit:4;stroke-dasharray:none">
        <path
           d="m 24.472656,48.494141 c -0.111012,-0.01025 -0.21535,-0.0097 -0.314453,0.002 -1.58564,0.186546 -3.357422,2.424692 -3.357422,3.357422 0,0.649193 0.223846,3.423287 0.388672,5.40625 1.496193,-1.308027 3.74281,-2.592452 5.126953,-0.191407 0.887404,1.539361 2.778308,7.740815 3.164063,12.267579 0.285102,3.345611 0.62713,7.385366 0.59375,12.003906 -0.03574,4.944299 1.849068,17.935396 3.958984,18.136718 3.742955,0.357144 2.443764,-23.284613 2.306641,-25.787109 -0.263816,-4.814638 -3.495662,-11.147759 -4.28711,-14.181641 -0.432401,-1.657539 0.25796,-2.634405 1.195313,-3.21289 l -4.240235,-5.1875 c 0,0 -2.869973,-2.459572 -4.535156,-2.613281 z m 11.141204,7.063815 c 1.58289,-0.131907 3.23262,1.25187 5.54101,4.08789 3.00349,3.689997 9.10084,15.895375 10.41992,25.986328 0.75703,5.791243 1.57635,30.596676 2.30078,34.955076 l -0.15039,-0.084 h -0.09375 c 0,0 -0.76832,-0.37301 -1.67773,-0.7461 -0.90941,-0.37309 -1.95989,-0.74609 -2.51953,-0.74609 -1.11928,0 -26.58133,-9.9e-4 -28.35352,0.18555 -0.88609,0.0933 -2.28532,0.67669 -3.46289,1.23632 -1.12056,0.53255 -1.94479,0.9947 -2.03125,1.04297 0.1009,-0.32605 0.44764,-1.32231 0.50586,-1.54687 0.92336,-3.56152 1.49599,-36.155288 1.97852,-39.441407 1.22419,-8.337085 1.29849,-14.917411 1.51757,-20.115234 0.10367,-2.459422 4.5059,-7.150975 6.72657,-3.298828 0.8874,1.539361 2.78026,7.740815 3.16601,12.267578 0.28511,3.345612 0.62713,7.385366 0.59375,12.003906 -0.03574,4.944299 1.84712,17.935396 3.95703,18.136719 3.74296,0.357143 2.44572,-23.284614 2.3086,-25.78711 -0.26382,-4.814637 -3.49566,-11.145805 -4.28711,-14.179687 -0.79145,-3.033883 2.14476,-3.839049 3.56055,-3.957031 z"
           style="fill:#ffffff;stroke:#4d4d4d;stroke-width:1px;stroke-linecap:butt;stroke-linejoin:miter;stroke-miterlimit:4;stroke-dasharray:none;stroke-opacity:1"
           id="vestibular_28_raiz"
           inkscape:connector-curvature="0" />
        <path
           d="m 31.130263,154.08651 0.06595,-7.78256 M 15.58651,121.47592 c 0.08646,-0.0483 0.91069,-0.51042 2.03125,-1.04297 1.17757,-0.55963 2.5768,-1.14305 3.46289,-1.23632 1.77219,-0.18654 27.23424,-0.18555 28.35352,-0.18555 0.55964,0 1.61012,0.373 2.51953,0.74609 0.90941,0.37309 1.67773,0.7461 1.67773,0.7461 h 0.09375 l 0.15039,0.084 c 0.02337,0.1406 0.05106,0.96143 0.07422,1.05664 1.18717,4.88059 6.39752,18.26803 5.40821,24.59961 -0.8574,3.95724 -13.58736,12.73032 -16.35743,12.99414 -2.77006,0.26382 -11.2105,-5.67216 -12.00195,-5.14453 -0.79145,0.52763 -6.33211,3.69336 -9.76172,3.69336 -3.4296,0 -10.15748,-7.91447 -11.47656,-12.53125 -1.23591,-4.32567 4.32686,-18.93433 5.82617,-23.7793 z"
           style="fill:#ffffff;stroke:#4d4d4d;stroke-width:1px;stroke-linecap:butt;stroke-linejoin:miter;stroke-miterlimit:4;stroke-dasharray:none;stroke-opacity:1"
           id="vestibular_28_face"
           inkscape:connector-curvature="0" />
      </g>
    </g>
  </g>
</svg>
