<?xml version="1.0" encoding="UTF-8" standalone="no"?>
<!-- Created with Inkscape (http://www.inkscape.org/) -->

<svg
   xmlns:dc="http://purl.org/dc/elements/1.1/"
   xmlns:cc="http://creativecommons.org/ns#"
   xmlns:rdf="http://www.w3.org/1999/02/22-rdf-syntax-ns#"
   xmlns:svg="http://www.w3.org/2000/svg"
   xmlns="http://www.w3.org/2000/svg"
   xmlns:sodipodi="http://sodipodi.sourceforge.net/DTD/sodipodi-0.dtd"
   xmlns:inkscape="http://www.inkscape.org/namespaces/inkscape"
   width="840"
   viewBox="0 0 222.25 42.333331"
   version="1.1"
   id="svg0"
   inkscape:version="0.92.3 (2405546, 2018-03-11)"
   sodipodi:docname="f1_dentes_inferiores_vestibular.min.svg"
   inkscape:export-filename="C:\Dev\Periochart\proto\img\versao_final\dentes_superiores_face_vestibular.png"
   inkscape:export-xdpi="96"
   inkscape:export-ydpi="96">
  <defs
     id="defs2">
    <filter
       style="color-interpolation-filters:sRGB"
       inkscape:label="Drop Shadow"
       id="filter2471">
      <feFlood
         flood-opacity="1"
         flood-color="rgb(0,0,0)"
         result="flood"
         id="feFlood2460" />
      <feComposite
         in="flood"
         in2="SourceGraphic"
         operator="out"
         result="composite1"
         id="feComposite2462" />
      <feGaussianBlur
         in="composite1"
         stdDeviation="3"
         result="blur"
         id="feGaussianBlur2464" />
      <feOffset
         dx="0"
         dy="0"
         result="offset"
         id="feOffset2466" />
      <feComposite
         in="offset"
         in2="SourceGraphic"
         operator="atop"
         result="composite2"
         id="feComposite2468" />
    </filter>
  </defs>
  <sodipodi:namedview
     id="base"
     pagecolor="#ffffff"
     bordercolor="#666666"
     borderopacity="1.0"
     inkscape:pageopacity="0.0"
     inkscape:pageshadow="2"
     inkscape:zoom="3.959798"
     inkscape:cx="462.2214"
     inkscape:cy="-4.7448273"
     inkscape:document-units="mm"
     inkscape:current-layer="camada_1"
     showgrid="false"
     units="px"
     showguides="true"
     inkscape:guide-bbox="true"
     inkscape:window-width="1920"
     inkscape:window-height="1017"
     inkscape:window-x="-8"
     inkscape:window-y="-8"
     inkscape:window-maximized="1"
     guidetolerance="1"
     gridtolerance="1"
     objecttolerance="1">
    <sodipodi:guide
       position="134.43657,0.93544332"
       orientation="0,1"
       id="guide2131"
       inkscape:locked="false" />
    <sodipodi:guide
       position="102.09696,41.159506"
       orientation="0,1"
       id="guide2133"
       inkscape:locked="false" />
    <sodipodi:guide
       position="68.413691,47.306702"
       orientation="1,0"
       id="guide3493"
       inkscape:locked="false" />
    <sodipodi:guide
       position="75.904544,50.480531"
       orientation="1,0"
       id="guide3495"
       inkscape:locked="false" />
    <sodipodi:guide
       position="145.66257,61.657365"
       orientation="0.9999699,0.0077590668"
       id="guide3497"
       inkscape:locked="false" />
    <sodipodi:guide
       position="152.47726,50.781209"
       orientation="1,0"
       id="guide3499"
       inkscape:locked="false" />
    <sodipodi:guide
       position="2.6930803,14.693824"
       orientation="1,0"
       id="guide3501"
       inkscape:locked="false" />
    <sodipodi:guide
       position="218.75372,47.306704"
       orientation="1,0"
       id="guide3503"
       inkscape:locked="false" />
    <sodipodi:guide
       position="16.158482,18.190103"
       orientation="1,0"
       id="guide3505"
       inkscape:locked="false" />
    <sodipodi:guide
       position="39.21503,37.230653"
       orientation="0,1"
       id="guide1317"
       inkscape:locked="false" />
    <sodipodi:guide
       position="45.302185,10.95805"
       orientation="0,1"
       id="guide1419"
       inkscape:locked="false" />
    <sodipodi:guide
       position="95.816963,26.978049"
       orientation="0,1"
       id="guide187"
       inkscape:locked="false" />
  </sodipodi:namedview>
  <metadata
     id="metadata5">
    <rdf:RDF>
      <cc:Work
         rdf:about="">
        <dc:format>image/svg+xml</dc:format>
        <dc:type
           rdf:resource="http://purl.org/dc/dcmitype/StillImage" />
        <dc:title />
      </cc:Work>
    </rdf:RDF>
  </metadata>
  <g
     inkscape:label="camada_1"
     inkscape:groupmode="layer"
     id="camada_1"
     transform="translate(0,-254.66669)">
    <g
       transform="matrix(0.26458333,0,0,-0.26458333,-2.3033638,303.308)"
       id="vestibular_48"
       style="fill:#ffffff;stroke:#4d4d4d;filter:url(#filter2471)">
      <g
         id="vestibular_48_dente">
        <path
           inkscape:connector-curvature="0"
           transform="matrix(1,0,0,-1,-2.5137349,71.818659)"
           id="vestibular_48_raiz"
           d="m 17.982422,-54.197266 c 1.103301,2.002019 2.353755,3.862418 4.052734,6.152344 1.978619,4.48487 0.341468,12.338012 -0.845703,17.482422 -1.187171,5.144415 -5.626193,13.018586 -5.230469,23.703125 0.395723,10.6845399 9.01641,20.608041 12.6875,19.353516 4.019876,-1.373717 0.446288,-15.5584385 2.367188,-22.3906254 1.237553,-4.4016806 5.096835,-17.4229766 10.28125,-16.5156246 4.569874,0.799798 -6.4244,20.7534611 -6.199219,29.943359 0.07439,3.035836 0.438641,7.433307 5.910156,5.6035156 3.713307,-1.241809 22.535337,-30.7219366 23.542969,-41.5390626 0.255239,-2.740025 0.891047,-12.525466 2.65625,-20.876953 -6.46e-4,-7.4e-5 -0.07617,-0.0078 -0.07617,-0.0078 -1.632276,0.279819 -4.961337,0.605646 -8.476562,0.640624 -1.757613,0.01749 -3.562456,-0.03847 -5.22461,-0.208984 -1.662153,-0.170514 -3.181863,-0.45539 -4.371093,-0.898437 -1.189231,-0.443048 -2.295946,-0.646256 -3.355469,-0.697266 -1.059523,-0.05101 -2.071505,0.04969 -3.06836,0.21875 -1.993709,0.338114 -3.92894,0.944309 -6.074218,1.130859 -2.394892,0.20825 -7.105235,-0.07046 -11.216797,-0.402343 -3.96831,-0.32032 -7.126535,-0.666095 -7.359375,-0.691407 z"
           style="fill:#ffffff;stroke:#4d4d4d;stroke-width:1px;stroke-linecap:butt;stroke-linejoin:miter;stroke-opacity:1" />
        <path
           inkscape:connector-curvature="0"
           d="m 40.946833,146.37438 c 0,0 -1.212549,6.34256 -0.186546,8.9542 m -25.2916,-29.31266 c 0.23284,-0.0253 3.391065,-0.37108 7.359375,-0.6914 4.111562,-0.33188 8.821905,-0.6106 11.216797,-0.40235 2.145278,0.18655 4.080509,0.79275 6.074218,1.13086 0.996855,0.16906 2.008837,0.26976 3.06836,0.21875 1.059523,-0.051 2.166238,-0.25421 3.355469,-0.69726 1.18923,-0.44305 2.70894,-0.72793 4.371093,-0.89844 1.662154,-0.17051 3.466997,-0.22647 5.22461,-0.20898 3.515225,0.035 6.844286,0.3608 8.476562,0.64062 0,0 0.07553,-0.008 0.07617,-0.008 0.135478,0.64097 0.227197,1.32375 0.376953,1.94336 0.938991,3.88499 11.045961,10.016 8.800781,23.02734 -0.793019,4.59573 -10.838198,9.76729 -17.433593,10.29492 -6.595395,0.52763 -14.726119,-5.18521 -15.939453,-5.01953 -1.027127,0.14026 -6.58122,3.57894 -19.78711,2.77149 -4.484869,-0.52764 -8.479683,-7.06701 -9.628906,-9.49805 -1.1025859,-2.82746 0.263713,-12.00403 1.978516,-17.14844 0.754509,-2.26353 1.543283,-3.88207 2.410156,-5.45508 z"
           style="fill:#ffffff;stroke:#4d4d4d;stroke-width:1px;stroke-linecap:butt;stroke-linejoin:miter;stroke-opacity:1"
           id="vestibular_48_face" />
      </g>
    </g>
    <g
       transform="matrix(0.26458333,0,0,-0.26458333,-2.5057034,303.55182)"
       id="vestibular_47"
       style="fill:#ffffff;stroke:#4d4d4d;filter:url(#filter2471)">
      <g
         id="vestibular_47_dente"
         transform="translate(0,0.75519067)">
        <path
           inkscape:connector-curvature="0"
           transform="matrix(1,0,0,-1,5.1846611,45.77692)"
           id="vestibular_47_raiz"
           d="m 124.18945,-79.380859 c 0,4e-6 -0.004,0.0039 -0.004,0.0039 -1.87712,0.54798 -3.5742,0.815891 -5.14453,0.90625 -1.57034,0.09036 -3.01386,0.0031 -4.38672,-0.160156 -2.74573,-0.326455 -5.20672,-0.957629 -7.81836,-1.074219 -2.61164,-0.11659 -4.60498,0.01291 -7.181643,0.246094 -2.576666,0.233182 -5.736223,0.569907 -10.679688,0.873046 -2.471733,0.151568 -4.535088,0.131489 -6.240234,0.01563 -1.705146,-0.115864 -3.052182,-0.326373 -4.089844,-0.556641 C 76.569208,-79.587489 75.730469,-80.125 75.730469,-80.125 l -0.04687,0.0039 c 1.978037,6.5736 3.06554,13.341766 3.355468,18.367188 0.395724,6.85921 -4.174155,32.637004 -4.287109,36.736328 -0.160614,5.828985 1.814115,16.0528799 6.859375,16.0937499 4.319967,0.034999 5.93569,-5.6056959 5.671875,-8.7714839 -0.263816,-3.16579 1.279996,-6.359149 5.369141,-15.72461 4.089147,-9.36546 4.259364,-19.982231 9.464841,-19.02539 1.59574,0.293319 2.75035,2.304646 0.59961,17.271484 -1.30307,9.06803 -11.273452,26.5353818 -5.865233,29.7011718 5.408213,3.1657889 19.374983,-19.9541148 20.902343,-24.2929688 1.23014,-3.494525 1.58174,-33.239878 2.10937,-37.460937 0.22533,-1.80257 2.23941,-6.643745 4.32617,-12.154297 z"
           style="fill:#ffffff;stroke:#4d4d4d;stroke-width:1px;stroke-linecap:butt;stroke-linejoin:miter;stroke-opacity:1" />
        <path
           inkscape:connector-curvature="0"
           d="m 103.08602,156.13816 c 0,0 -0.52763,-6.13372 -0.13191,-7.25494 m 14.83993,12.13589 c -5.27632,0.26382 -12.34273,-5.07965 -14.40821,-4.93555 -1.89689,0.13234 -7.457903,5.34741 -15.535153,3.61524 -3.66844,-0.7867 -11.440723,-8.78436 -11.871094,-10.94727 -0.587053,-2.95035 -0.09095,-10.11806 2.373047,-15.83008 0.971543,-2.25222 1.793834,-4.62471 2.515625,-7.02344 l 0.04687,0.004 c 0,0 0.838739,-0.53751 2.914062,-0.99805 1.037662,-0.23026 2.384698,-0.44077 4.089844,-0.55664 1.705146,-0.11586 3.768501,-0.13594 6.240234,0.0156 4.943465,0.30314 8.103025,0.63986 10.679695,0.87304 2.57666,0.23319 4.56999,0.36269 7.18164,0.2461 2.61163,-0.11659 5.07263,-0.74777 7.81836,-1.07422 1.37286,-0.16323 2.81637,-0.25052 4.38671,-0.16016 1.57033,0.0904 3.26741,0.35827 5.14453,0.90625 0,0 0.004,0.004 0.004,0.004 2.79978,7.39342 5.7765,16.17195 5.17188,22.14258 0.13191,6.59539 -11.47564,13.45493 -16.75195,13.71875 z"
           style="fill:#ffffff;stroke:#4d4d4d;stroke-width:1px;stroke-linecap:butt;stroke-linejoin:miter;stroke-opacity:1"
           id="vestibular_47_face" />
      </g>
    </g>
    <g
       transform="matrix(0.26458333,0,0,-0.26458333,-2.552398,303.3516)"
       id="vestibular_46"
       style="fill:#ffffff;stroke:#4d4d4d;filter:url(#filter2471)">
      <g
         id="vestibular_46_dente">
        <path
           inkscape:connector-curvature="0"
           transform="matrix(1,0,0,-1,7.1468588,184.72025)"
           id="vestibular_46_raiz"
           d="m 137.84766,59.878906 c 0.66123,3.065955 1.20966,6.547969 1.42382,11.044922 1.22998,25.826174 -11.00807,34.723312 -7.13086,50.009762 4.94055,19.47872 10.7976,11.92034 11.0879,11.32813 0.82442,-1.68183 0.58108,-3.6412 -1.26563,-8.85156 -2.37434,-7.78257 1.83721,-17.92305 4.87109,-22.93555 3.03388,-5.012501 4.40404,-25.926079 8.66211,-22.955079 10.30593,7.1908 3.60425,36.573879 2.90235,41.419919 -0.50586,3.49258 -4.45266,13.78335 0,14.9043 7.7016,1.93887 17.93783,-20.84048 19.125,-28.62305 1.57065,-10.296506 3.51724,-38.393561 4.77539,-46.648434 -0.002,1.79e-4 -0.10156,0.01367 -0.10156,0.01367 -1.30582,0.373089 -6.15586,0.839679 -11.42579,1.189453 -5.26992,0.349773 -10.96057,0.583509 -13.94531,0.490234 -5.96947,-0.18654 -18.74609,-0.373047 -18.74609,-0.373047 0,0 -0.22192,-0.01375 -0.23242,-0.01367 z"
           style="fill:#ffffff;stroke:#4d4d4d;stroke-width:1px;stroke-linecap:butt;stroke-linejoin:miter;stroke-opacity:1" />
        <path
           inkscape:connector-curvature="0"
           d="m 164.81333,159.33932 c 0,0 -1.30582,-5.31656 0.74619,-9.04748 m -20.565,-25.4505 c 0.0105,8e-5 0.23242,-0.0137 0.23242,-0.0137 0,0 12.77662,-0.1865 18.74609,-0.37305 2.98474,-0.0933 8.67539,0.14047 13.94531,0.49024 5.26993,0.34977 10.11997,0.81636 11.42579,1.18945 0,0 0.0997,0.0135 0.10156,0.0137 0.0294,0.19311 0.0768,0.86676 0.10547,1.03711 0.65617,3.90246 9.90277,22.41951 9.11132,29.32422 -0.79143,3.03388 -6.72107,6.86965 -11.08203,8.45117 -4.36097,1.58152 -13.60764,-0.17025 -16.77343,-1.35742 -3.16579,-1.18718 -5.15151,-4.40694 -6.05469,-4.43164 -0.90318,-0.0247 -0.26268,3.43092 -9.23242,4.75 -8.96974,1.31908 -14.11528,-4.35356 -15.83008,-6.06836 -1.7148,-1.7148 -4.32975,-5.42702 -3.82422,-12.26758 0.41595,-5.62841 6.29485,-7.60338 9.12891,-20.74414 z"
           style="fill:#ffffff;stroke:#4d4d4d;stroke-width:1px;stroke-linecap:butt;stroke-linejoin:miter;stroke-opacity:1"
           id="vestibular_46_face" />
      </g>
    </g>
    <g
       transform="matrix(0.26458333,0,0,-0.26458333,-2.8148031,303.40854)"
       id="vestibular_45"
       style="fill:#ffffff;stroke:#4d4d4d;filter:url(#filter2471)">
      <g
         id="vestibular_45_dente">
        <path
           inkscape:connector-curvature="0"
           transform="matrix(1,0,0,-1,10.638626,186.28925)"
           id="vestibular_45_raiz"
           d="m 197.64453,59.804688 c 0.047,0.211491 0.25386,0.636985 0.27539,0.816406 0.55964,4.66365 1.97188,12.28995 2.63281,16.59375 0.77087,5.0197 2.40326,49.257276 2.96289,53.734376 0.55964,4.4771 1.67938,5.9687 4.29102,6.3418 7.83493,-0.74619 7.0888,-13.24356 7.64844,-18.09375 0.55964,-4.8502 2.79883,-32.272991 2.79883,-36.003911 0,-3.73092 2.61127,-22.012496 2.98437,-23.691406 -4.1e-4,4.07e-4 -0.0469,0.04687 -0.0469,0.04687 -1.29417,0.658741 -2.62926,1.159524 -3.97461,1.53125 -1.34536,0.371726 -2.70141,0.614624 -4.03711,0.757813 -2.6714,0.286377 -5.2616,0.173388 -7.5293,-0.103516 -2.2677,-0.276904 -4.21261,-0.71748 -5.58984,-1.089844 -1.37724,-0.372363 -2.1875,-0.675781 -2.1875,-0.675781 0,0 -0.21496,-0.155086 -0.22852,-0.164062 z"
           style="fill:#ffffff;stroke:#4d4d4d;stroke-width:1px;stroke-linecap:butt;stroke-linejoin:miter;stroke-opacity:1" />
        <path
           inkscape:connector-curvature="0"
           transform="matrix(1,0,0,-1,10.638626,186.28925)"
           id="vestibular_45_face"
           d="m 197.64453,59.804688 c 0.0136,0.009 0.22852,0.164062 0.22852,0.164062 0,0 0.81026,0.303418 2.1875,0.675781 1.37723,0.372364 3.32214,0.81294 5.58984,1.089844 2.2677,0.276904 4.8579,0.389893 7.5293,0.103516 1.3357,-0.143189 2.69175,-0.386087 4.03711,-0.757813 1.34535,-0.371726 2.68044,-0.872509 3.97461,-1.53125 0,0 0.0465,-0.04647 0.0469,-0.04687 6e-5,-2.87e-4 0.002,-0.0017 0.002,-0.002 0.37729,-1.682899 13.21789,-15.847348 8.76563,-24.341797 -3.54437,-6.76229 -14.92428,-15.250542 -19.21484,-16.882812 -6.71565,-0.74619 -19.63359,5.03707 -21.3125,13.43164 -1.61433,8.071604 6.9908,22.811891 8.16601,28.097657 z"
           style="fill:#ffffff;stroke:#4d4d4d;stroke-width:1px;stroke-linecap:butt;stroke-linejoin:miter;stroke-opacity:1" />
      </g>
    </g>
    <g
       transform="matrix(0.26458333,0,0,-0.26458333,-2.9076725,303.38291)"
       id="vestibular_44"
       style="fill:#ffffff;stroke:#4d4d4d;filter:url(#filter2471)">
      <g
         id="vestibular_44_dente"
         transform="translate(0,0.37748265)">
        <path
           inkscape:connector-curvature="0"
           transform="matrix(1,0,0,-1,10.989628,182.96175)"
           id="vestibular_44_raiz"
           d="m 239.51367,57.59375 c 0.006,0.01403 0.0218,0.06038 0.0274,0.07422 1.92019,4.77705 2.98432,32.084578 3.35742,35.255859 0.37309,3.171281 1.26211,33.066811 1.63281,36.003901 1.08609,8.60515 10.49418,4.05656 10.12109,-1.30664 -0.14474,-2.08061 2.23819,-24.99587 2.98438,-26.86132 0.74618,-1.865462 2.72577,-40.175741 4.00586,-42.773441 0.007,-0.01344 0.0265,-0.04304 0.0332,-0.05664 -7e-5,4e-5 -0.0293,0.01758 -0.0293,0.01758 -3.05469,0.769502 -5.89838,1.154516 -8.46484,1.292968 -2.56646,0.138453 -4.85563,0.03015 -6.79687,-0.185546 -1.94125,-0.215694 -3.53582,-0.539096 -4.71485,-0.832032 -1.1447,-0.284408 -1.85728,-0.528907 -2.15625,-0.628906 z"
           style="fill:#ffffff;stroke:#4d4d4d;stroke-width:1px;stroke-linecap:butt;stroke-linejoin:miter;stroke-opacity:1" />
        <path
           inkscape:connector-curvature="0"
           transform="matrix(1,0,0,-1,10.989628,182.96175)"
           id="vestibular_44_face"
           d="m 239.51367,57.59375 c 0.29897,0.1 1.01155,0.344498 2.15625,0.628906 1.17903,0.292936 2.7736,0.616338 4.71485,0.832032 1.94124,0.215693 4.23041,0.323999 6.79687,0.185546 2.56646,-0.138452 5.41015,-0.523466 8.46484,-1.292968 0,0 0.0292,-0.01754 0.0293,-0.01758 1.54381,-3.114084 6.16307,-10.344016 6.59375,-12.015626 1.11928,-1.678909 2.42505,-13.056956 0.37305,-18.466796 -2.05201,-5.40983 -14.27442,-16.768401 -19.58789,-13.431641 -7.63975,4.79762 -17.34766,9.88668 -17.34766,18.28125 0,4.342337 5.86903,20.467661 7.80664,25.296875 z"
           style="fill:#ffffff;stroke:#4d4d4d;stroke-width:1px;stroke-linecap:butt;stroke-linejoin:miter;stroke-opacity:1" />
      </g>
    </g>
    <g
       transform="matrix(0.26458333,0,0,-0.26458333,2.6587257,303.50965)"
       id="vestibular_43"
       style="fill:#ffffff;stroke:#4d4d4d;filter:url(#filter2471)">
      <g
         id="vestibular_43_dente"
         transform="translate(0,0.37675634)">
        <path
           inkscape:connector-curvature="0"
           transform="matrix(1,0,0,-1,-11.604566,16.664504)"
           id="vestibular_43_raiz"
           d="m 301.375,-108.96875 c 0.0795,0.31447 0.37225,1.16327 0.42773,1.41602 0,0 2.24099,13.719588 2.63672,17.544918 0.39572,3.825329 0.79254,23.875575 1.58399,35.351562 0.79145,11.475987 0.39496,18.863158 -0.39649,26.25 -0.79145,7.386842 0.13282,7.123047 0.13282,7.123047 0,0 1.9774,1.44928 5.80273,-2.244141 3.82533,-3.693421 8.97085,-35.218977 8.70703,-50.916015 -0.25689,-15.285609 1.07844,-31.258491 1.15039,-34.300781 -0.002,4e-5 -0.0957,0.006 -0.0957,0.006 -2.63816,0.72549 -5.19336,1.07034 -7.54297,1.18164 -2.34961,0.1113 -4.49291,-0.0122 -6.30664,-0.22656 -3.62747,-0.4287 -5.93555,-1.21875 -5.93555,-1.21875 0,0 -0.15381,0.0301 -0.16406,0.0332 z"
           style="fill:#ffffff;stroke:#4d4d4d;stroke-width:1px;stroke-linecap:butt;stroke-linejoin:miter;stroke-opacity:1" />
        <path
           inkscape:connector-curvature="0"
           transform="matrix(1,0,0,-1,-11.604566,16.664504)"
           id="vestibular_43_face"
           d="m 301.375,-108.96875 c 0.0102,-0.003 0.16406,-0.0332 0.16406,-0.0332 0,0 2.30808,0.79005 5.93555,1.21875 1.81373,0.21435 3.95703,0.33786 6.30664,0.22656 2.34961,-0.1113 4.90481,-0.45615 7.54297,-1.18164 0,0 0.0941,-0.006 0.0957,-0.006 0.002,-0.0819 0.0371,-0.59207 0.0371,-0.6543 0,-2.37434 3.16491,-14.37759 6.99024,-22.16015 3.82533,-7.78257 3.42935,-12.66357 2.24218,-17.14844 -1.18717,-4.48487 -18.73036,-9.23361 -20.70898,-8.83789 -1.97862,0.39572 -14.77453,10.28792 -16.35742,12.39844 -1.5829,2.11053 -0.52748,7.65118 -0.26367,9.76171 0.25149,2.01189 6.3929,20.00141 8.01562,26.41602 z"
           style="fill:#ffffff;stroke:#4d4d4d;stroke-width:1px;stroke-linecap:butt;stroke-linejoin:miter;stroke-opacity:1" />
      </g>
    </g>
    <g
       transform="matrix(0.26458333,0,0,-0.26458333,4.0652554,303.59551)"
       id="vestibular_42"
       style="fill:#ffffff;stroke:#4d4d4d;filter:url(#filter2471)">
      <g
         id="vestibular_42_dente">
        <path
           inkscape:connector-curvature="0"
           transform="matrix(1,0,0,-1,-16.435812,60.308939)"
           id="vestibular_42_raiz"
           d="m 342.87305,-66.177734 c 0.58999,6.288525 1.30487,13.628956 1.89257,16.861328 0.74619,4.10401 1.19751,17.127919 1.87891,24.216797 1.41653,14.736717 -2.07422,34.5449215 -2.07422,34.5449215 -0.31135,6.5045335 11.84063,-0.8588546 11.00586,-19.9589845 -0.11519,-2.635642 3.91797,-36.563095 3.91797,-39.734375 0,-1.793535 0.7965,-8.801502 2.22852,-16.320312 -0.0106,0.0051 -0.36328,0.183593 -0.36328,0.183593 -1.06098,0.478024 -2.14662,0.838949 -3.23438,1.105469 -1.08776,0.26652 -2.1771,0.438736 -3.24609,0.537109 -2.13799,0.196748 -4.19275,0.100459 -5.98243,-0.115234 -1.78967,-0.215693 -3.31556,-0.550755 -4.39257,-0.832031 -1.03026,-0.269064 -1.5789,-0.46971 -1.63086,-0.488281 z"
           style="fill:#ffffff;stroke:#4d4d4d;stroke-width:1px;stroke-linecap:butt;stroke-linejoin:miter;stroke-opacity:1" />
        <path
           inkscape:connector-curvature="0"
           transform="matrix(1,0,0,-1,-16.435812,60.308939)"
           id="vestibular_42_face"
           d="m 342.87305,-66.177734 c 0.052,0.01857 0.6006,0.219217 1.63086,0.488281 1.07701,0.281276 2.6029,0.616338 4.39257,0.832031 1.78968,0.215693 3.84444,0.311982 5.98243,0.115234 1.06899,-0.09837 2.15833,-0.270589 3.24609,-0.537109 1.08776,-0.26652 2.1734,-0.627445 3.23438,-1.105469 0,0 0.35269,-0.178533 0.36328,-0.183593 1.10003,-5.775746 2.54127,-11.843347 4.48632,-16.138672 4.4771,-9.88693 3.87423,-20.728249 2.19532,-22.966799 -1.67892,-2.23856 -11.89499,-1.84371 -16.18555,-2.21679 -4.29056,-0.37309 -14.06818,-3.48029 -15.56055,3.04882 -1.49236,6.529113 5.19717,27.790311 5.70508,34.117191 0.11989,1.493437 0.35067,2.851117 0.50977,4.546875 z"
           style="fill:#ffffff;stroke:#4d4d4d;stroke-width:1px;stroke-linecap:butt;stroke-linejoin:miter;stroke-opacity:1" />
      </g>
    </g>
    <g
       transform="matrix(0.26458333,0,0,-0.26458333,5.7290122,303.51312)"
       id="vestibular_41"
       style="fill:#ffffff;stroke:#4d4d4d;filter:url(#filter2471)">
      <g
         id="vestibular_41_dente"
         transform="translate(0,0.37882808)">
        <path
           inkscape:connector-curvature="0"
           transform="matrix(1,0,0,-1,-22.764635,341.0151)"
           id="vestibular_41_raiz"
           d="m 401.70117,215.94727 c -0.008,-0.0107 -0.15429,-0.22657 -0.15429,-0.22657 -1.95874,0.53632 -3.99338,0.80374 -5.94336,0.9043 -1.94999,0.10056 -3.81689,0.0345 -5.4375,-0.0996 -3.24124,-0.26816 -5.50196,-0.80469 -5.50196,-0.80469 0,0 -0.55978,26.11607 1.11914,35.44336 3.1299,23.63931 -2.43748,33.90721 5.58399,34.09375 8.02148,0.18655 6.23735,-22.49942 6.68164,-29.66406 0.17351,-6.07277 0.85943,-29.08107 3.65234,-39.64648 z"
           style="fill:#ffffff;stroke:#4d4d4d;stroke-width:1px;stroke-linecap:butt;stroke-linejoin:miter;stroke-opacity:1" />
        <path
           inkscape:connector-curvature="0"
           transform="matrix(1,0,0,-1,-22.764635,341.0151)"
           id="vestibular_41_face"
           d="m 394.7832,172.18555 c -6.66901,0.20986 -13.47738,0.90858 -14.7832,1.74804 -2.61164,1.67891 -1.49219,5.9694 -1.49219,8.76758 0,2.79819 5.22352,25.55769 6.15625,33.01953 0,0 2.26072,0.53653 5.50196,0.80469 1.62061,0.13408 3.48751,0.20017 5.4375,0.0996 1.94998,-0.10056 3.98462,-0.36798 5.94336,-0.9043 0,0 0.1467,0.21591 0.15429,0.22657 0.20987,-0.79394 0.40399,-1.6873 0.63867,-2.32618 8.61515,-23.4523 7.88105,-38.00754 6.38868,-40.24609 -0.74619,-1.11927 -7.2763,-1.39932 -13.94532,-1.18945 z"
           style="fill:#ffffff;stroke:#4d4d4d;stroke-width:1px;stroke-linecap:butt;stroke-linejoin:miter;stroke-opacity:1" />
      </g>
    </g>
    <g
       transform="matrix(-0.26458333,0,0,-0.26458333,215.88637,303.71771)"
       id="vestibular_31"
       style="fill:#ffffff;stroke:#4d4d4d;filter:url(#filter2471)">
      <g
         id="vestibular_31_dente"
         transform="translate(0,0.75523123)">
        <path
           inkscape:connector-curvature="0"
           transform="matrix(1,0,0,-1,-22.764635,341.0151)"
           id="vestibular_31_raiz"
           d="m 401.70117,215.94727 c -0.008,-0.0107 -0.15429,-0.22657 -0.15429,-0.22657 -1.95874,0.53632 -3.99338,0.80374 -5.94336,0.9043 -1.94999,0.10056 -3.81689,0.0345 -5.4375,-0.0996 -3.24124,-0.26816 -5.50196,-0.80469 -5.50196,-0.80469 0,0 -0.55978,26.11607 1.11914,35.44336 3.1299,23.63931 -2.43748,33.90721 5.58399,34.09375 8.02148,0.18655 6.23735,-22.49942 6.68164,-29.66406 0.17351,-6.07277 0.85943,-29.08107 3.65234,-39.64648 z"
           style="fill:#ffffff;stroke:#4d4d4d;stroke-width:1px;stroke-linecap:butt;stroke-linejoin:miter;stroke-opacity:1" />
        <path
           inkscape:connector-curvature="0"
           transform="matrix(1,0,0,-1,-22.764635,341.0151)"
           id="vestibular_31_face"
           d="m 394.7832,172.18555 c -6.66901,0.20986 -13.47738,0.90858 -14.7832,1.74804 -2.61164,1.67891 -1.49219,5.9694 -1.49219,8.76758 0,2.79819 5.22352,25.55769 6.15625,33.01953 0,0 2.26072,0.53653 5.50196,0.80469 1.62061,0.13408 3.48751,0.20017 5.4375,0.0996 1.94998,-0.10056 3.98462,-0.36798 5.94336,-0.9043 0,0 0.1467,0.21591 0.15429,0.22657 0.20987,-0.79394 0.40399,-1.6873 0.63867,-2.32618 8.61515,-23.4523 7.88105,-38.00754 6.38868,-40.24609 -0.74619,-1.11927 -7.2763,-1.39932 -13.94532,-1.18945 z"
           style="fill:#ffffff;stroke:#4d4d4d;stroke-width:1px;stroke-linecap:butt;stroke-linejoin:miter;stroke-opacity:1" />
      </g>
    </g>
    <g
       transform="matrix(-0.26458333,0,0,-0.26458333,217.55014,303.8001)"
       id="vestibular_32"
       style="fill:#ffffff;stroke:#4d4d4d;filter:url(#filter2471)">
      <g
         id="vestibular_32_dente"
         transform="translate(0,0.37951842)">
        <path
           inkscape:connector-curvature="0"
           transform="matrix(1,0,0,-1,-16.435812,60.308939)"
           id="vestibular_32_raiz"
           d="m 342.87305,-66.177734 c 0.58999,6.288525 1.30487,13.628956 1.89257,16.861328 0.74619,4.10401 1.19751,17.127919 1.87891,24.216797 1.41653,14.736717 -2.07422,34.5449215 -2.07422,34.5449215 -0.31135,6.5045335 11.84063,-0.8588546 11.00586,-19.9589845 -0.11519,-2.635642 3.91797,-36.563095 3.91797,-39.734375 0,-1.793535 0.7965,-8.801502 2.22852,-16.320312 -0.0106,0.0051 -0.36328,0.183593 -0.36328,0.183593 -1.06098,0.478024 -2.14662,0.838949 -3.23438,1.105469 -1.08776,0.26652 -2.1771,0.438736 -3.24609,0.537109 -2.13799,0.196748 -4.19275,0.100459 -5.98243,-0.115234 -1.78967,-0.215693 -3.31556,-0.550755 -4.39257,-0.832031 -1.03026,-0.269064 -1.5789,-0.46971 -1.63086,-0.488281 z"
           style="fill:#ffffff;stroke:#4d4d4d;stroke-width:1px;stroke-linecap:butt;stroke-linejoin:miter;stroke-opacity:1" />
        <path
           inkscape:connector-curvature="0"
           transform="matrix(1,0,0,-1,-16.435812,60.308939)"
           id="vestibular_32_face"
           d="m 342.87305,-66.177734 c 0.052,0.01857 0.6006,0.219217 1.63086,0.488281 1.07701,0.281276 2.6029,0.616338 4.39257,0.832031 1.78968,0.215693 3.84444,0.311982 5.98243,0.115234 1.06899,-0.09837 2.15833,-0.270589 3.24609,-0.537109 1.08776,-0.26652 2.1734,-0.627445 3.23438,-1.105469 0,0 0.35269,-0.178533 0.36328,-0.183593 1.10003,-5.775746 2.54127,-11.843347 4.48632,-16.138672 4.4771,-9.88693 3.87423,-20.728249 2.19532,-22.966799 -1.67892,-2.23856 -11.89499,-1.84371 -16.18555,-2.21679 -4.29056,-0.37309 -14.06818,-3.48029 -15.56055,3.04882 -1.49236,6.529113 5.19717,27.790311 5.70508,34.117191 0.11989,1.493437 0.35067,2.851117 0.50977,4.546875 z"
           style="fill:#ffffff;stroke:#4d4d4d;stroke-width:1px;stroke-linecap:butt;stroke-linejoin:miter;stroke-opacity:1" />
      </g>
    </g>
    <g
       transform="matrix(-0.26458333,0,0,-0.26458333,219.48584,303.61424)"
       id="vestibular_33"
       style="fill:#ffffff;stroke:#4d4d4d;filter:url(#filter2471)">
      <g
         id="vestibular_33_dente"
         transform="translate(0,1.1348918)">
        <path
           inkscape:connector-curvature="0"
           transform="matrix(1,0,0,-1,-11.604566,16.664504)"
           id="vestibular_33_raiz"
           d="m 301.375,-108.96875 c 0.0795,0.31447 0.37225,1.16327 0.42773,1.41602 0,0 2.24099,13.719588 2.63672,17.544918 0.39572,3.825329 0.79254,23.875575 1.58399,35.351562 0.79145,11.475987 0.39496,18.863158 -0.39649,26.25 -0.79145,7.386842 0.13282,7.123047 0.13282,7.123047 0,0 1.9774,1.44928 5.80273,-2.244141 3.82533,-3.693421 8.97085,-35.218977 8.70703,-50.916015 -0.25689,-15.285609 1.07844,-31.258491 1.15039,-34.300781 -0.002,4e-5 -0.0957,0.006 -0.0957,0.006 -2.63816,0.72549 -5.19336,1.07034 -7.54297,1.18164 -2.34961,0.1113 -4.49291,-0.0122 -6.30664,-0.22656 -3.62747,-0.4287 -5.93555,-1.21875 -5.93555,-1.21875 0,0 -0.15381,0.0301 -0.16406,0.0332 z"
           style="fill:#ffffff;stroke:#4d4d4d;stroke-width:1px;stroke-linecap:butt;stroke-linejoin:miter;stroke-opacity:1" />
        <path
           inkscape:connector-curvature="0"
           transform="matrix(1,0,0,-1,-11.604566,16.664504)"
           id="vestibular_33_face"
           d="m 301.375,-108.96875 c 0.0102,-0.003 0.16406,-0.0332 0.16406,-0.0332 0,0 2.30808,0.79005 5.93555,1.21875 1.81373,0.21435 3.95703,0.33786 6.30664,0.22656 2.34961,-0.1113 4.90481,-0.45615 7.54297,-1.18164 0,0 0.0941,-0.006 0.0957,-0.006 0.002,-0.0819 0.0371,-0.59207 0.0371,-0.6543 0,-2.37434 3.16491,-14.37759 6.99024,-22.16015 3.82533,-7.78257 3.42935,-12.66357 2.24218,-17.14844 -1.18717,-4.48487 -18.73036,-9.23361 -20.70898,-8.83789 -1.97862,0.39572 -14.77453,10.28792 -16.35742,12.39844 -1.5829,2.11053 -0.52748,7.65118 -0.26367,9.76171 0.25149,2.01189 6.3929,20.00141 8.01562,26.41602 z"
           style="fill:#ffffff;stroke:#4d4d4d;stroke-width:1px;stroke-linecap:butt;stroke-linejoin:miter;stroke-opacity:1" />
      </g>
    </g>
    <g
       transform="matrix(-0.26458333,0,0,-0.26458333,224.52307,303.5875)"
       id="vestibular_34"
       style="fill:#ffffff;stroke:#4d4d4d;filter:url(#filter2471)">
      <g
         id="vestibular_34_dente"
         transform="translate(0,0.75766533)">
        <path
           inkscape:connector-curvature="0"
           transform="matrix(1,0,0,-1,10.989628,182.96175)"
           id="vestibular_34_raiz"
           d="m 239.51367,57.59375 c 0.006,0.01403 0.0218,0.06038 0.0274,0.07422 1.92019,4.77705 2.98432,32.084578 3.35742,35.255859 0.37309,3.171281 1.26211,33.066811 1.63281,36.003901 1.08609,8.60515 10.49418,4.05656 10.12109,-1.30664 -0.14474,-2.08061 2.23819,-24.99587 2.98438,-26.86132 0.74618,-1.865462 2.72577,-40.175741 4.00586,-42.773441 0.007,-0.01344 0.0265,-0.04304 0.0332,-0.05664 -7e-5,4e-5 -0.0293,0.01758 -0.0293,0.01758 -3.05469,0.769502 -5.89838,1.154516 -8.46484,1.292968 -2.56646,0.138453 -4.85563,0.03015 -6.79687,-0.185546 -1.94125,-0.215694 -3.53582,-0.539096 -4.71485,-0.832032 -1.1447,-0.284408 -1.85728,-0.528907 -2.15625,-0.628906 z"
           style="fill:#ffffff;stroke:#4d4d4d;stroke-width:1px;stroke-linecap:butt;stroke-linejoin:miter;stroke-opacity:1" />
        <path
           inkscape:connector-curvature="0"
           transform="matrix(1,0,0,-1,10.989628,182.96175)"
           id="vestibular_34_face"
           d="m 239.51367,57.59375 c 0.29897,0.1 1.01155,0.344498 2.15625,0.628906 1.17903,0.292936 2.7736,0.616338 4.71485,0.832032 1.94124,0.215693 4.23041,0.323999 6.79687,0.185546 2.56646,-0.138452 5.41015,-0.523466 8.46484,-1.292968 0,0 0.0292,-0.01754 0.0293,-0.01758 1.54381,-3.114084 6.16307,-10.344016 6.59375,-12.015626 1.11928,-1.678909 2.42505,-13.056956 0.37305,-18.466796 -2.05201,-5.40983 -14.27442,-16.768401 -19.58789,-13.431641 -7.63975,4.79762 -17.34766,9.88668 -17.34766,18.28125 0,4.342337 5.86903,20.467661 7.80664,25.296875 z"
           style="fill:#ffffff;stroke:#4d4d4d;stroke-width:1px;stroke-linecap:butt;stroke-linejoin:miter;stroke-opacity:1" />
      </g>
    </g>
    <g
       transform="matrix(-0.26458333,0,0,-0.26458333,224.4302,303.51347)"
       id="vestibular_35"
       style="fill:#ffffff;stroke:#4d4d4d;filter:url(#filter2471)">
      <g
         id="vestibular_35_dente"
         transform="translate(0,0.37613823)">
        <path
           inkscape:connector-curvature="0"
           transform="matrix(1,0,0,-1,10.638626,186.28925)"
           id="vestibular_35_raiz"
           d="m 197.64453,59.804688 c 0.047,0.211491 0.25386,0.636985 0.27539,0.816406 0.55964,4.66365 1.97188,12.28995 2.63281,16.59375 0.77087,5.0197 2.40326,49.257276 2.96289,53.734376 0.55964,4.4771 1.67938,5.9687 4.29102,6.3418 7.83493,-0.74619 7.0888,-13.24356 7.64844,-18.09375 0.55964,-4.8502 2.79883,-32.272991 2.79883,-36.003911 0,-3.73092 2.61127,-22.012496 2.98437,-23.691406 -4.1e-4,4.07e-4 -0.0469,0.04687 -0.0469,0.04687 -1.29417,0.658741 -2.62926,1.159524 -3.97461,1.53125 -1.34536,0.371726 -2.70141,0.614624 -4.03711,0.757813 -2.6714,0.286377 -5.2616,0.173388 -7.5293,-0.103516 -2.2677,-0.276904 -4.21261,-0.71748 -5.58984,-1.089844 -1.37724,-0.372363 -2.1875,-0.675781 -2.1875,-0.675781 0,0 -0.21496,-0.155086 -0.22852,-0.164062 z"
           style="fill:#ffffff;stroke:#4d4d4d;stroke-width:1px;stroke-linecap:butt;stroke-linejoin:miter;stroke-opacity:1" />
        <path
           inkscape:connector-curvature="0"
           transform="matrix(1,0,0,-1,10.638626,186.28925)"
           id="vestibular_35_face"
           d="m 197.64453,59.804688 c 0.0136,0.009 0.22852,0.164062 0.22852,0.164062 0,0 0.81026,0.303418 2.1875,0.675781 1.37723,0.372364 3.32214,0.81294 5.58984,1.089844 2.2677,0.276904 4.8579,0.389893 7.5293,0.103516 1.3357,-0.143189 2.69175,-0.386087 4.03711,-0.757813 1.34535,-0.371726 2.68044,-0.872509 3.97461,-1.53125 0,0 0.0465,-0.04647 0.0469,-0.04687 6e-5,-2.87e-4 0.002,-0.0017 0.002,-0.002 0.37729,-1.682899 13.21789,-15.847348 8.76563,-24.341797 -3.54437,-6.76229 -14.92428,-15.250542 -19.21484,-16.882812 -6.71565,-0.74619 -19.63359,5.03707 -21.3125,13.43164 -1.61433,8.071604 6.9908,22.811891 8.16601,28.097657 z"
           style="fill:#ffffff;stroke:#4d4d4d;stroke-width:1px;stroke-linecap:butt;stroke-linejoin:miter;stroke-opacity:1" />
      </g>
    </g>
    <g
       transform="matrix(-0.26458333,0,0,-0.26458333,224.1678,303.35582)"
       id="vestibular_36"
       style="fill:#ffffff;stroke:#4d4d4d;filter:url(#filter2471)">
      <g
         id="vestibular_36_dente">
        <path
           inkscape:connector-curvature="0"
           transform="matrix(1,0,0,-1,7.1468588,184.72025)"
           id="vestibular_36_raiz"
           d="m 137.84766,59.878906 c 0.66123,3.065955 1.20966,6.547969 1.42382,11.044922 1.22998,25.826174 -11.00807,34.723312 -7.13086,50.009762 4.94055,19.47872 10.7976,11.92034 11.0879,11.32813 0.82442,-1.68183 0.58108,-3.6412 -1.26563,-8.85156 -2.37434,-7.78257 1.83721,-17.92305 4.87109,-22.93555 3.03388,-5.012501 4.40404,-25.926079 8.66211,-22.955079 10.30593,7.1908 3.60425,36.573879 2.90235,41.419919 -0.50586,3.49258 -4.45266,13.78335 0,14.9043 7.7016,1.93887 17.93783,-20.84048 19.125,-28.62305 1.57065,-10.296506 3.51724,-38.393561 4.77539,-46.648434 -0.002,1.79e-4 -0.10156,0.01367 -0.10156,0.01367 -1.30582,0.373089 -6.15586,0.839679 -11.42579,1.189453 -5.26992,0.349773 -10.96057,0.583509 -13.94531,0.490234 -5.96947,-0.18654 -18.74609,-0.373047 -18.74609,-0.373047 0,0 -0.22192,-0.01375 -0.23242,-0.01367 z"
           style="fill:#ffffff;stroke:#4d4d4d;stroke-width:1px;stroke-linecap:butt;stroke-linejoin:miter;stroke-opacity:1" />
        <path
           inkscape:connector-curvature="0"
           d="m 164.81333,159.33932 c 0,0 -1.30582,-5.31656 0.74619,-9.04748 m -20.565,-25.4505 c 0.0105,8e-5 0.23242,-0.0137 0.23242,-0.0137 0,0 12.77662,-0.1865 18.74609,-0.37305 2.98474,-0.0933 8.67539,0.14047 13.94531,0.49024 5.26993,0.34977 10.11997,0.81636 11.42579,1.18945 0,0 0.0997,0.0135 0.10156,0.0137 0.0294,0.19311 0.0768,0.86676 0.10547,1.03711 0.65617,3.90246 9.90277,22.41951 9.11132,29.32422 -0.79143,3.03388 -6.72107,6.86965 -11.08203,8.45117 -4.36097,1.58152 -13.60764,-0.17025 -16.77343,-1.35742 -3.16579,-1.18718 -5.15151,-4.40694 -6.05469,-4.43164 -0.90318,-0.0247 -0.26268,3.43092 -9.23242,4.75 -8.96974,1.31908 -14.11528,-4.35356 -15.83008,-6.06836 -1.7148,-1.7148 -4.32975,-5.42702 -3.82422,-12.26758 0.41595,-5.62841 6.29485,-7.60338 9.12891,-20.74414 z"
           style="fill:#ffffff;stroke:#4d4d4d;stroke-width:1px;stroke-linecap:butt;stroke-linejoin:miter;stroke-opacity:1"
           id="vestibular_36_face" />
      </g>
    </g>
    <g
       transform="matrix(-0.26458333,0,0,-0.26458333,224.1211,303.75641)"
       id="vestibular_37"
       style="fill:#ffffff;stroke:#4d4d4d;filter:url(#filter2471)">
      <g
         id="vestibular_37_dente"
         transform="translate(0,1.8912789)">
        <path
           inkscape:connector-curvature="0"
           transform="matrix(1,0,0,-1,5.1846611,45.77692)"
           id="vestibular_47_raiz-2"
           d="m 124.18945,-79.380859 c 0,4e-6 -0.004,0.0039 -0.004,0.0039 -1.87712,0.54798 -3.5742,0.815891 -5.14453,0.90625 -1.57034,0.09036 -3.01386,0.0031 -4.38672,-0.160156 -2.74573,-0.326455 -5.20672,-0.957629 -7.81836,-1.074219 -2.61164,-0.11659 -4.60498,0.01291 -7.181643,0.246094 -2.576666,0.233182 -5.736223,0.569907 -10.679688,0.873046 -2.471733,0.151568 -4.535088,0.131489 -6.240234,0.01563 -1.705146,-0.115864 -3.052182,-0.326373 -4.089844,-0.556641 C 76.569208,-79.587489 75.730469,-80.125 75.730469,-80.125 l -0.04687,0.0039 c 1.978037,6.5736 3.06554,13.341766 3.355468,18.367188 0.395724,6.85921 -4.174155,32.637004 -4.287109,36.736328 -0.160614,5.828985 1.814115,16.0528799 6.859375,16.0937499 4.319967,0.034999 5.93569,-5.6056959 5.671875,-8.7714839 -0.263816,-3.16579 1.279996,-6.359149 5.369141,-15.72461 4.089147,-9.36546 4.259364,-19.982231 9.464841,-19.02539 1.59574,0.293319 2.75035,2.304646 0.59961,17.271484 -1.30307,9.06803 -11.273452,26.5353818 -5.865233,29.7011718 5.408213,3.1657889 19.374983,-19.9541148 20.902343,-24.2929688 1.23014,-3.494525 1.58174,-33.239878 2.10937,-37.460937 0.22533,-1.80257 2.23941,-6.643745 4.32617,-12.154297 z"
           style="fill:#ffffff;stroke:#4d4d4d;stroke-width:1px;stroke-linecap:butt;stroke-linejoin:miter;stroke-opacity:1" />
        <path
           inkscape:connector-curvature="0"
           d="m 103.08602,156.13816 c 0,0 -0.52763,-6.13372 -0.13191,-7.25494 m 14.83993,12.13589 c -5.27632,0.26382 -12.34273,-5.07965 -14.40821,-4.93555 -1.89689,0.13234 -7.457903,5.34741 -15.535153,3.61524 -3.66844,-0.7867 -11.440723,-8.78436 -11.871094,-10.94727 -0.587053,-2.95035 -0.09095,-10.11806 2.373047,-15.83008 0.971543,-2.25222 1.793834,-4.62471 2.515625,-7.02344 l 0.04687,0.004 c 0,0 0.838739,-0.53751 2.914062,-0.99805 1.037662,-0.23026 2.384698,-0.44077 4.089844,-0.55664 1.705146,-0.11586 3.768501,-0.13594 6.240234,0.0156 4.943465,0.30314 8.103025,0.63986 10.679695,0.87304 2.57666,0.23319 4.56999,0.36269 7.18164,0.2461 2.61163,-0.11659 5.07263,-0.74777 7.81836,-1.07422 1.37286,-0.16323 2.81637,-0.25052 4.38671,-0.16016 1.57033,0.0904 3.26741,0.35827 5.14453,0.90625 0,0 0.004,0.004 0.004,0.004 2.79978,7.39342 5.7765,16.17195 5.17188,22.14258 0.13191,6.59539 -11.47564,13.45493 -16.75195,13.71875 z"
           style="fill:#ffffff;stroke:#4d4d4d;stroke-width:1px;stroke-linecap:butt;stroke-linejoin:miter;stroke-opacity:1"
           id="vestibular_47_face-4" />
      </g>
    </g>
    <g
       transform="matrix(-0.26458333,0,0,-0.26458333,223.91877,303.51259)"
       id="vestibular_38"
       style="fill:#ffffff;stroke:#4d4d4d;filter:url(#filter2471)">
      <g
         id="vestibular_38_dente">
        <path
           inkscape:connector-curvature="0"
           transform="matrix(1,0,0,-1,-2.5137349,71.818659)"
           id="vestibular_38_raiz"
           d="m 17.982422,-54.197266 c 1.103301,2.002019 2.353755,3.862418 4.052734,6.152344 1.978619,4.48487 0.341468,12.338012 -0.845703,17.482422 -1.187171,5.144415 -5.626193,13.018586 -5.230469,23.703125 0.395723,10.6845399 9.01641,20.608041 12.6875,19.353516 4.019876,-1.373717 0.446288,-15.5584385 2.367188,-22.3906254 1.237553,-4.4016806 5.096835,-17.4229766 10.28125,-16.5156246 4.569874,0.799798 -6.4244,20.7534611 -6.199219,29.943359 0.07439,3.035836 0.438641,7.433307 5.910156,5.6035156 3.713307,-1.241809 22.535337,-30.7219366 23.542969,-41.5390626 0.255239,-2.740025 0.891047,-12.525466 2.65625,-20.876953 -6.46e-4,-7.4e-5 -0.07617,-0.0078 -0.07617,-0.0078 -1.632276,0.279819 -4.961337,0.605646 -8.476562,0.640624 -1.757613,0.01749 -3.562456,-0.03847 -5.22461,-0.208984 -1.662153,-0.170514 -3.181863,-0.45539 -4.371093,-0.898437 -1.189231,-0.443048 -2.295946,-0.646256 -3.355469,-0.697266 -1.059523,-0.05101 -2.071505,0.04969 -3.06836,0.21875 -1.993709,0.338114 -3.92894,0.944309 -6.074218,1.130859 -2.394892,0.20825 -7.105235,-0.07046 -11.216797,-0.402343 -3.96831,-0.32032 -7.126535,-0.666095 -7.359375,-0.691407 z"
           style="fill:#ffffff;stroke:#4d4d4d;stroke-width:1px;stroke-linecap:butt;stroke-linejoin:miter;stroke-opacity:1" />
        <path
           inkscape:connector-curvature="0"
           d="m 40.946833,146.37438 c 0,0 -1.212549,6.34256 -0.186546,8.9542 m -25.2916,-29.31266 c 0.23284,-0.0253 3.391065,-0.37108 7.359375,-0.6914 4.111562,-0.33188 8.821905,-0.6106 11.216797,-0.40235 2.145278,0.18655 4.080509,0.79275 6.074218,1.13086 0.996855,0.16906 2.008837,0.26976 3.06836,0.21875 1.059523,-0.051 2.166238,-0.25421 3.355469,-0.69726 1.18923,-0.44305 2.70894,-0.72793 4.371093,-0.89844 1.662154,-0.17051 3.466997,-0.22647 5.22461,-0.20898 3.515225,0.035 6.844286,0.3608 8.476562,0.64062 0,0 0.07553,-0.008 0.07617,-0.008 0.135478,0.64097 0.227197,1.32375 0.376953,1.94336 0.938991,3.88499 11.045961,10.016 8.800781,23.02734 -0.793019,4.59573 -10.838198,9.76729 -17.433593,10.29492 -6.595395,0.52763 -14.726119,-5.18521 -15.939453,-5.01953 -1.027127,0.14026 -6.58122,3.57894 -19.78711,2.77149 -4.484869,-0.52764 -8.479683,-7.06701 -9.628906,-9.49805 -1.1025859,-2.82746 0.263713,-12.00403 1.978516,-17.14844 0.754509,-2.26353 1.543283,-3.88207 2.410156,-5.45508 z"
           style="fill:#ffffff;stroke:#4d4d4d;stroke-width:1px;stroke-linecap:butt;stroke-linejoin:miter;stroke-opacity:1"
           id="vestibular_38_face" />
      </g>
    </g>
  </g>
</svg>
